%TF.GenerationSoftware,KiCad,Pcbnew,(6.0.2)*%
%TF.CreationDate,2022-03-22T21:07:05-04:00*%
%TF.ProjectId,turbocan,74757262-6f63-4616-9e2e-6b696361645f,rev?*%
%TF.SameCoordinates,Original*%
%TF.FileFunction,Soldermask,Bot*%
%TF.FilePolarity,Negative*%
%FSLAX46Y46*%
G04 Gerber Fmt 4.6, Leading zero omitted, Abs format (unit mm)*
G04 Created by KiCad (PCBNEW (6.0.2)) date 2022-03-22 21:07:05*
%MOMM*%
%LPD*%
G01*
G04 APERTURE LIST*
G04 Aperture macros list*
%AMRoundRect*
0 Rectangle with rounded corners*
0 $1 Rounding radius*
0 $2 $3 $4 $5 $6 $7 $8 $9 X,Y pos of 4 corners*
0 Add a 4 corners polygon primitive as box body*
4,1,4,$2,$3,$4,$5,$6,$7,$8,$9,$2,$3,0*
0 Add four circle primitives for the rounded corners*
1,1,$1+$1,$2,$3*
1,1,$1+$1,$4,$5*
1,1,$1+$1,$6,$7*
1,1,$1+$1,$8,$9*
0 Add four rect primitives between the rounded corners*
20,1,$1+$1,$2,$3,$4,$5,0*
20,1,$1+$1,$4,$5,$6,$7,0*
20,1,$1+$1,$6,$7,$8,$9,0*
20,1,$1+$1,$8,$9,$2,$3,0*%
G04 Aperture macros list end*
%ADD10C,5.600000*%
%ADD11O,0.950000X1.250000*%
%ADD12O,1.550000X0.890000*%
%ADD13C,0.600000*%
%ADD14R,4.000000X4.000000*%
%ADD15RoundRect,0.250000X0.725000X-0.600000X0.725000X0.600000X-0.725000X0.600000X-0.725000X-0.600000X0*%
%ADD16O,1.950000X1.700000*%
%ADD17RoundRect,0.250000X-0.600000X-0.725000X0.600000X-0.725000X0.600000X0.725000X-0.600000X0.725000X0*%
%ADD18O,1.700000X1.950000*%
%ADD19RoundRect,0.250000X-0.750000X0.600000X-0.750000X-0.600000X0.750000X-0.600000X0.750000X0.600000X0*%
%ADD20O,2.000000X1.700000*%
%ADD21RoundRect,0.250000X0.600000X0.725000X-0.600000X0.725000X-0.600000X-0.725000X0.600000X-0.725000X0*%
%ADD22C,2.000000*%
%ADD23RoundRect,0.250000X1.000000X-1.500000X1.000000X1.500000X-1.000000X1.500000X-1.000000X-1.500000X0*%
%ADD24RoundRect,0.250000X0.750000X-0.600000X0.750000X0.600000X-0.750000X0.600000X-0.750000X-0.600000X0*%
%ADD25R,1.700000X1.700000*%
%ADD26O,1.700000X1.700000*%
G04 APERTURE END LIST*
D10*
%TO.C,H4*%
X51000000Y-51000000D03*
%TD*%
%TO.C,H1*%
X20000000Y-20000000D03*
%TD*%
D11*
%TO.C,J1*%
X17940000Y-25075000D03*
D12*
X15240000Y-24075000D03*
X15240000Y-31075000D03*
D11*
X17940000Y-30075000D03*
%TD*%
D13*
%TO.C,U7*%
X48102123Y-46542709D03*
X48102123Y-45856909D03*
X47086123Y-45856909D03*
D14*
X47594123Y-45856909D03*
D13*
X48102123Y-45171109D03*
X47086123Y-45171109D03*
X47086123Y-46542709D03*
%TD*%
D15*
%TO.C,J2*%
X47625000Y-42545000D03*
D16*
X47625000Y-40045000D03*
X47625000Y-37545000D03*
X47625000Y-35045000D03*
%TD*%
D17*
%TO.C,J10*%
X35620000Y-18305000D03*
D18*
X38120000Y-18305000D03*
X40620000Y-18305000D03*
X43120000Y-18305000D03*
%TD*%
D19*
%TO.C,J11*%
X53500000Y-26000000D03*
D20*
X53500000Y-28500000D03*
%TD*%
D19*
%TO.C,J12*%
X53500000Y-34500000D03*
D20*
X53500000Y-37000000D03*
%TD*%
D19*
%TO.C,J13*%
X53493654Y-43021373D03*
D20*
X53493654Y-45521373D03*
%TD*%
D21*
%TO.C,J14*%
X54454261Y-18997116D03*
D18*
X51954261Y-18997116D03*
X49454261Y-18997116D03*
%TD*%
D22*
%TO.C,U2*%
X42120000Y-37540000D03*
X42120000Y-40080000D03*
X42120000Y-42620000D03*
X42120000Y-45160000D03*
X42120000Y-47700000D03*
X42120000Y-50240000D03*
X42120000Y-52780000D03*
X42120000Y-55320000D03*
X29420000Y-37540000D03*
X29420000Y-40080000D03*
X29420000Y-42620000D03*
X29420000Y-45160000D03*
X29420000Y-47700000D03*
X29420000Y-50240000D03*
X29420000Y-52780000D03*
X29420000Y-55320000D03*
X34500000Y-55320000D03*
X31960000Y-55320000D03*
%TD*%
D23*
%TO.C,C21*%
X35700000Y-51800000D03*
X35700000Y-45300000D03*
%TD*%
D17*
%TO.C,J8*%
X17189203Y-49543659D03*
D18*
X19689203Y-49543659D03*
X22189203Y-49543659D03*
%TD*%
D17*
%TO.C,J3*%
X17125000Y-35765000D03*
D18*
X19625000Y-35765000D03*
X22125000Y-35765000D03*
%TD*%
D24*
%TO.C,J9*%
X24000000Y-27490000D03*
D20*
X24000000Y-24990000D03*
%TD*%
D17*
%TO.C,J7*%
X17165000Y-42640000D03*
D18*
X19665000Y-42640000D03*
X22165000Y-42640000D03*
%TD*%
D25*
%TO.C,J15*%
X48265000Y-24780000D03*
D26*
X45725000Y-24780000D03*
X48265000Y-27320000D03*
X45725000Y-27320000D03*
X48265000Y-29860000D03*
X45725000Y-29860000D03*
%TD*%
M02*
