M48
; DRILL file {KiCad (6.0.2)} date Tue Mar 22 21:09:12 2022
; FORMAT={-:-/ absolute / inch / decimal}
; #@! TF.CreationDate,2022-03-22T21:09:12-04:00
; #@! TF.GenerationSoftware,Kicad,Pcbnew,(6.0.2)
; #@! TF.FileFunction,Plated,1,2,PTH
FMAT,2
INCH
; #@! TA.AperFunction,Plated,PTH,ViaDrill
T1C0.0118
; #@! TA.AperFunction,Plated,PTH,ComponentDrill
T2C0.0118
; #@! TA.AperFunction,Plated,PTH,ViaDrill
T3C0.0157
; #@! TA.AperFunction,Plated,PTH,ComponentDrill
T4C0.0197
; #@! TA.AperFunction,Plated,PTH,ComponentDrill
T5C0.0217
; #@! TA.AperFunction,Plated,PTH,ComponentDrill
T6C0.0374
; #@! TA.AperFunction,Plated,PTH,ComponentDrill
T7C0.0394
; #@! TA.AperFunction,Plated,PTH,ComponentDrill
T8C0.1260
%
G90
G05
T1
X0.65Y-0.75
X0.7Y-0.925
X0.7119Y-1.2898
X0.725Y-1.475
X0.725Y-1.75
X0.725Y-2.025
X0.75Y-0.925
X0.75Y-1.5
X0.75Y-1.775
X0.75Y-2.05
X0.775Y-1.125
X0.775Y-1.175
X0.775Y-1.3
X0.775Y-1.475
X0.775Y-1.75
X0.775Y-2.025
X0.7871Y-1.046
X0.8Y-1.15
X0.8Y-1.5
X0.8Y-1.775
X0.8Y-2.05
X0.8107Y-1.075
X0.825Y-1.475
X0.825Y-1.75
X0.825Y-2.025
X0.875Y-1.025
X0.875Y-1.075
X0.875Y-1.125
X0.875Y-1.175
X0.925Y-0.7
X0.925Y-0.725
X0.925Y-0.75
X0.9503Y-0.7759
X0.975Y-0.6
X1.0Y-0.625
X1.0Y-1.475
X1.0Y-1.525
X1.0Y-1.575
X1.0Y-1.625
X1.0Y-1.675
X1.025Y-0.65
X1.025Y-0.925
X1.025Y-0.975
X1.05Y-1.35
X1.0504Y-1.313
X1.0628Y-1.8253
X1.063Y-2.0315
X1.063Y-1.9291
X1.0645Y-0.8673
X1.1399Y-0.7351
X1.15Y-0.6851
X1.1562Y-1.1066
X1.1752Y-1.339
X1.1821Y-1.125
X1.2222Y-0.7351
X1.2225Y-0.9025
X1.2268Y-1.1816
X1.2328Y-0.8675
X1.2422Y-1.3362
X1.2592Y-0.9273
X1.2707Y-1.3228
X1.275Y-1.175
X1.275Y-1.925
X1.275Y-1.95
X1.275Y-1.975
X1.2854Y-1.2067
X1.3222Y-1.1752
X1.3228Y-0.9921
X1.3239Y-1.0725
X1.35Y-0.675
X1.3501Y-1.1987
X1.3548Y-1.234
X1.3622Y-1.9449
X1.375Y-1.475
X1.375Y-1.525
X1.375Y-1.575
X1.375Y-1.625
X1.375Y-1.675
X1.3783Y-0.7869
X1.3992Y-0.8863
X1.4Y-1.45
X1.4Y-1.5
X1.4Y-1.55
X1.4Y-1.6
X1.4Y-1.65
X1.425Y-1.475
X1.425Y-1.525
X1.425Y-1.575
X1.425Y-1.625
X1.425Y-1.675
X1.4252Y-2.1339
X1.4376Y-1.2416
X1.449Y-0.7867
X1.45Y-0.575
X1.45Y-1.45
X1.45Y-1.5
X1.45Y-1.55
X1.45Y-1.6
X1.45Y-1.65
X1.475Y-1.475
X1.4816Y-0.7867
X1.4823Y-0.8657
X1.5Y-1.975
X1.5Y-2.025
X1.511Y-1.3247
X1.5131Y-0.8505
X1.5168Y-0.7864
X1.5196Y-1.8306
X1.525Y-2.0
X1.55Y-0.85
X1.55Y-1.975
X1.55Y-2.025
X1.5581Y-0.891
X1.575Y-2.0
X1.5859Y-1.6808
X1.5896Y-0.8589
X1.5984Y-1.3248
X1.6Y-2.025
X1.6682Y-0.9601
X1.6692Y-1.2865
X1.6973Y-1.0534
X1.6976Y-1.086
X1.7Y-0.95
X1.7Y-1.1185
X1.725Y-0.975
X1.725Y-2.0
X1.725Y-2.05
X1.75Y-1.975
X1.75Y-2.025
X1.75Y-2.075
X1.775Y-0.9
X1.775Y-1.9
X1.775Y-1.95
X1.775Y-2.0
X1.775Y-2.05
X1.8Y-1.925
X1.8Y-1.975
X1.8Y-2.025
X1.8Y-2.075
X1.825Y-1.95
X1.825Y-2.0
X1.825Y-2.05
X1.876Y-1.2883
X1.925Y-0.9
X1.925Y-1.25
X1.9384Y-1.633
X1.95Y-1.025
X1.975Y-1.1
X1.975Y-1.875
X2.1076Y-1.2041
X2.1164Y-1.5396
X2.2008Y-2.2008
T2
X1.8538Y-1.7784
X1.8538Y-1.8054
X1.8538Y-1.8324
X1.8938Y-1.7784
X1.8938Y-1.8054
X1.8938Y-1.8324
T3
X0.9Y-1.25
X1.357Y-1.393
X1.4711Y-2.1195
T6
X0.6742Y-1.4081
X0.6758Y-1.6787
X0.6767Y-1.9505
X0.7726Y-1.4081
X0.7742Y-1.6787
X0.7752Y-1.9505
X0.8711Y-1.4081
X0.8726Y-1.6787
X0.8736Y-1.9505
X1.4024Y-0.7207
X1.5008Y-0.7207
X1.5992Y-0.7207
X1.6976Y-0.7207
X1.875Y-1.3797
X1.875Y-1.4781
X1.875Y-1.5766
X1.875Y-1.675
X1.947Y-0.7479
X2.0454Y-0.7479
X2.1439Y-0.7479
T7
X0.9449Y-0.9839
X0.9449Y-1.0823
X1.1583Y-1.478
X1.1583Y-1.578
X1.1583Y-1.678
X1.1583Y-1.778
X1.1583Y-1.878
X1.1583Y-1.978
X1.1583Y-2.078
X1.1583Y-2.178
X1.2583Y-2.178
X1.3583Y-2.178
X1.6583Y-1.478
X1.6583Y-1.578
X1.6583Y-1.678
X1.6583Y-1.778
X1.6583Y-1.878
X1.6583Y-1.978
X1.6583Y-2.078
X1.6583Y-2.178
X1.8002Y-0.9756
X1.8002Y-1.0756
X1.8002Y-1.1756
X1.9002Y-0.9756
X1.9002Y-1.0756
X1.9002Y-1.1756
X2.106Y-1.6938
X2.106Y-1.7922
X2.1063Y-1.0236
X2.1063Y-1.122
X2.1063Y-1.3583
X2.1063Y-1.4567
T8
X0.7874Y-0.7874
X2.0079Y-2.0079
T4
G00X0.6128Y-0.9478
M15
G01X0.5872Y-0.9478
M16
G05
G00X0.6128Y-1.2234
M15
G01X0.5872Y-1.2234
M16
G05
T5
G00X0.7063Y-0.9813
M15
G01X0.7063Y-0.9931
M16
G05
G00X0.7063Y-1.1781
M15
G01X0.7063Y-1.19
M16
G05
T0
M30
