%TF.GenerationSoftware,KiCad,Pcbnew,(6.0.2)*%
%TF.CreationDate,2022-03-22T21:07:05-04:00*%
%TF.ProjectId,turbocan,74757262-6f63-4616-9e2e-6b696361645f,rev?*%
%TF.SameCoordinates,Original*%
%TF.FileFunction,Legend,Bot*%
%TF.FilePolarity,Positive*%
%FSLAX46Y46*%
G04 Gerber Fmt 4.6, Leading zero omitted, Abs format (unit mm)*
G04 Created by KiCad (PCBNEW (6.0.2)) date 2022-03-22 21:07:05*
%MOMM*%
%LPD*%
G01*
G04 APERTURE LIST*
%ADD10C,0.150000*%
%ADD11C,0.300000*%
%ADD12C,0.500000*%
%ADD13C,0.100000*%
%ADD14C,0.120000*%
G04 APERTURE END LIST*
D10*
X27160704Y-24154331D02*
X27160704Y-24611474D01*
X27960704Y-24382903D02*
X27160704Y-24382903D01*
X27960704Y-24878141D02*
X27160704Y-24878141D01*
X27541657Y-24878141D02*
X27541657Y-25335284D01*
X27960704Y-25335284D02*
X27160704Y-25335284D01*
X27122609Y-26287665D02*
X28151180Y-25601950D01*
X27960704Y-26554331D02*
X27160704Y-26554331D01*
X27160704Y-26859093D01*
X27198800Y-26935284D01*
X27236895Y-26973379D01*
X27313085Y-27011474D01*
X27427371Y-27011474D01*
X27503561Y-26973379D01*
X27541657Y-26935284D01*
X27579752Y-26859093D01*
X27579752Y-26554331D01*
X27732133Y-27316236D02*
X27732133Y-27697188D01*
X27960704Y-27240046D02*
X27160704Y-27506712D01*
X27960704Y-27773379D01*
X27160704Y-28192427D02*
X27160704Y-28268617D01*
X27198800Y-28344808D01*
X27236895Y-28382903D01*
X27313085Y-28420998D01*
X27465466Y-28459093D01*
X27655942Y-28459093D01*
X27808323Y-28420998D01*
X27884514Y-28382903D01*
X27922609Y-28344808D01*
X27960704Y-28268617D01*
X27960704Y-28192427D01*
X27922609Y-28116236D01*
X27884514Y-28078141D01*
X27808323Y-28040046D01*
X27655942Y-28001950D01*
X27465466Y-28001950D01*
X27313085Y-28040046D01*
X27236895Y-28078141D01*
X27198800Y-28116236D01*
X27160704Y-28192427D01*
X43461904Y-30047619D02*
X43461904Y-29666666D01*
X43842857Y-29628571D01*
X43804761Y-29666666D01*
X43766666Y-29742857D01*
X43766666Y-29933333D01*
X43804761Y-30009523D01*
X43842857Y-30047619D01*
X43919047Y-30085714D01*
X44109523Y-30085714D01*
X44185714Y-30047619D01*
X44223809Y-30009523D01*
X44261904Y-29933333D01*
X44261904Y-29742857D01*
X44223809Y-29666666D01*
X44185714Y-29628571D01*
X43461904Y-30314285D02*
X44261904Y-30580952D01*
X43461904Y-30847619D01*
X32990476Y-53961904D02*
X32990476Y-53161904D01*
X32685714Y-53161904D01*
X32609523Y-53200000D01*
X32571428Y-53238095D01*
X32533333Y-53314285D01*
X32533333Y-53428571D01*
X32571428Y-53504761D01*
X32609523Y-53542857D01*
X32685714Y-53580952D01*
X32990476Y-53580952D01*
X31923809Y-53542857D02*
X31809523Y-53580952D01*
X31771428Y-53619047D01*
X31733333Y-53695238D01*
X31733333Y-53809523D01*
X31771428Y-53885714D01*
X31809523Y-53923809D01*
X31885714Y-53961904D01*
X32190476Y-53961904D01*
X32190476Y-53161904D01*
X31923809Y-53161904D01*
X31847619Y-53200000D01*
X31809523Y-53238095D01*
X31771428Y-53314285D01*
X31771428Y-53390476D01*
X31809523Y-53466666D01*
X31847619Y-53504761D01*
X31923809Y-53542857D01*
X32190476Y-53542857D01*
X31009523Y-53161904D02*
X31390476Y-53161904D01*
X31428571Y-53542857D01*
X31390476Y-53504761D01*
X31314285Y-53466666D01*
X31123809Y-53466666D01*
X31047619Y-53504761D01*
X31009523Y-53542857D01*
X30971428Y-53619047D01*
X30971428Y-53809523D01*
X31009523Y-53885714D01*
X31047619Y-53923809D01*
X31123809Y-53961904D01*
X31314285Y-53961904D01*
X31390476Y-53923809D01*
X31428571Y-53885714D01*
X37990476Y-55611904D02*
X37990476Y-54811904D01*
X37685714Y-54811904D01*
X37609523Y-54850000D01*
X37571428Y-54888095D01*
X37533333Y-54964285D01*
X37533333Y-55078571D01*
X37571428Y-55154761D01*
X37609523Y-55192857D01*
X37685714Y-55230952D01*
X37990476Y-55230952D01*
X36923809Y-55192857D02*
X36809523Y-55230952D01*
X36771428Y-55269047D01*
X36733333Y-55345238D01*
X36733333Y-55459523D01*
X36771428Y-55535714D01*
X36809523Y-55573809D01*
X36885714Y-55611904D01*
X37190476Y-55611904D01*
X37190476Y-54811904D01*
X36923809Y-54811904D01*
X36847619Y-54850000D01*
X36809523Y-54888095D01*
X36771428Y-54964285D01*
X36771428Y-55040476D01*
X36809523Y-55116666D01*
X36847619Y-55154761D01*
X36923809Y-55192857D01*
X37190476Y-55192857D01*
X35971428Y-55611904D02*
X36428571Y-55611904D01*
X36200000Y-55611904D02*
X36200000Y-54811904D01*
X36276190Y-54926190D01*
X36352380Y-55002380D01*
X36428571Y-55040476D01*
X25761904Y-41554523D02*
X24961904Y-41554523D01*
X24961904Y-41859285D01*
X25000000Y-41935476D01*
X25038095Y-41973571D01*
X25114285Y-42011666D01*
X25228571Y-42011666D01*
X25304761Y-41973571D01*
X25342857Y-41935476D01*
X25380952Y-41859285D01*
X25380952Y-41554523D01*
X25342857Y-42621190D02*
X25380952Y-42735476D01*
X25419047Y-42773571D01*
X25495238Y-42811666D01*
X25609523Y-42811666D01*
X25685714Y-42773571D01*
X25723809Y-42735476D01*
X25761904Y-42659285D01*
X25761904Y-42354523D01*
X24961904Y-42354523D01*
X24961904Y-42621190D01*
X25000000Y-42697380D01*
X25038095Y-42735476D01*
X25114285Y-42773571D01*
X25190476Y-42773571D01*
X25266666Y-42735476D01*
X25304761Y-42697380D01*
X25342857Y-42621190D01*
X25342857Y-42354523D01*
X24961904Y-43497380D02*
X24961904Y-43345000D01*
X25000000Y-43268809D01*
X25038095Y-43230714D01*
X25152380Y-43154523D01*
X25304761Y-43116428D01*
X25609523Y-43116428D01*
X25685714Y-43154523D01*
X25723809Y-43192619D01*
X25761904Y-43268809D01*
X25761904Y-43421190D01*
X25723809Y-43497380D01*
X25685714Y-43535476D01*
X25609523Y-43573571D01*
X25419047Y-43573571D01*
X25342857Y-43535476D01*
X25304761Y-43497380D01*
X25266666Y-43421190D01*
X25266666Y-43268809D01*
X25304761Y-43192619D01*
X25342857Y-43154523D01*
X25419047Y-43116428D01*
X43029549Y-26478777D02*
X42229549Y-26478777D01*
X42800978Y-26745443D01*
X42229549Y-27012110D01*
X43029549Y-27012110D01*
X43029549Y-27393062D02*
X42229549Y-27393062D01*
X42991454Y-27735920D02*
X43029549Y-27850205D01*
X43029549Y-28040681D01*
X42991454Y-28116872D01*
X42953359Y-28154967D01*
X42877168Y-28193062D01*
X42800978Y-28193062D01*
X42724787Y-28154967D01*
X42686692Y-28116872D01*
X42648597Y-28040681D01*
X42610502Y-27888300D01*
X42572406Y-27812110D01*
X42534311Y-27774015D01*
X42458121Y-27735920D01*
X42381930Y-27735920D01*
X42305740Y-27774015D01*
X42267645Y-27812110D01*
X42229549Y-27888300D01*
X42229549Y-28078777D01*
X42267645Y-28193062D01*
X42229549Y-28688300D02*
X42229549Y-28840681D01*
X42267645Y-28916872D01*
X42343835Y-28993062D01*
X42496216Y-29031158D01*
X42762883Y-29031158D01*
X42915264Y-28993062D01*
X42991454Y-28916872D01*
X43029549Y-28840681D01*
X43029549Y-28688300D01*
X42991454Y-28612110D01*
X42915264Y-28535920D01*
X42762883Y-28497824D01*
X42496216Y-28497824D01*
X42343835Y-28535920D01*
X42267645Y-28612110D01*
X42229549Y-28688300D01*
X26971428Y-54652380D02*
X26400000Y-54652380D01*
X26685714Y-55652380D02*
X26685714Y-54652380D01*
X25638095Y-54985714D02*
X25638095Y-55652380D01*
X26066666Y-54985714D02*
X26066666Y-55509523D01*
X26019047Y-55604761D01*
X25923809Y-55652380D01*
X25780952Y-55652380D01*
X25685714Y-55604761D01*
X25638095Y-55557142D01*
X25161904Y-55652380D02*
X25161904Y-54985714D01*
X25161904Y-55176190D02*
X25114285Y-55080952D01*
X25066666Y-55033333D01*
X24971428Y-54985714D01*
X24876190Y-54985714D01*
X24542857Y-55652380D02*
X24542857Y-54652380D01*
X24542857Y-55033333D02*
X24447619Y-54985714D01*
X24257142Y-54985714D01*
X24161904Y-55033333D01*
X24114285Y-55080952D01*
X24066666Y-55176190D01*
X24066666Y-55461904D01*
X24114285Y-55557142D01*
X24161904Y-55604761D01*
X24257142Y-55652380D01*
X24447619Y-55652380D01*
X24542857Y-55604761D01*
X23495238Y-55652380D02*
X23590476Y-55604761D01*
X23638095Y-55557142D01*
X23685714Y-55461904D01*
X23685714Y-55176190D01*
X23638095Y-55080952D01*
X23590476Y-55033333D01*
X23495238Y-54985714D01*
X23352380Y-54985714D01*
X23257142Y-55033333D01*
X23209523Y-55080952D01*
X23161904Y-55176190D01*
X23161904Y-55461904D01*
X23209523Y-55557142D01*
X23257142Y-55604761D01*
X23352380Y-55652380D01*
X23495238Y-55652380D01*
X22161904Y-55557142D02*
X22209523Y-55604761D01*
X22352380Y-55652380D01*
X22447619Y-55652380D01*
X22590476Y-55604761D01*
X22685714Y-55509523D01*
X22733333Y-55414285D01*
X22780952Y-55223809D01*
X22780952Y-55080952D01*
X22733333Y-54890476D01*
X22685714Y-54795238D01*
X22590476Y-54700000D01*
X22447619Y-54652380D01*
X22352380Y-54652380D01*
X22209523Y-54700000D01*
X22161904Y-54747619D01*
X21780952Y-55366666D02*
X21304761Y-55366666D01*
X21876190Y-55652380D02*
X21542857Y-54652380D01*
X21209523Y-55652380D01*
X20876190Y-55652380D02*
X20876190Y-54652380D01*
X20304761Y-55652380D01*
X20304761Y-54652380D01*
X19161904Y-54985714D02*
X18923809Y-55652380D01*
X18685714Y-54985714D01*
X18114285Y-54652380D02*
X18019047Y-54652380D01*
X17923809Y-54700000D01*
X17876190Y-54747619D01*
X17828571Y-54842857D01*
X17780952Y-55033333D01*
X17780952Y-55271428D01*
X17828571Y-55461904D01*
X17876190Y-55557142D01*
X17923809Y-55604761D01*
X18019047Y-55652380D01*
X18114285Y-55652380D01*
X18209523Y-55604761D01*
X18257142Y-55557142D01*
X18304761Y-55461904D01*
X18352380Y-55271428D01*
X18352380Y-55033333D01*
X18304761Y-54842857D01*
X18257142Y-54747619D01*
X18209523Y-54700000D01*
X18114285Y-54652380D01*
X17352380Y-55557142D02*
X17304761Y-55604761D01*
X17352380Y-55652380D01*
X17400000Y-55604761D01*
X17352380Y-55557142D01*
X17352380Y-55652380D01*
X16971428Y-54652380D02*
X16352380Y-54652380D01*
X16685714Y-55033333D01*
X16542857Y-55033333D01*
X16447619Y-55080952D01*
X16400000Y-55128571D01*
X16352380Y-55223809D01*
X16352380Y-55461904D01*
X16400000Y-55557142D01*
X16447619Y-55604761D01*
X16542857Y-55652380D01*
X16828571Y-55652380D01*
X16923809Y-55604761D01*
X16971428Y-55557142D01*
X15923809Y-55557142D02*
X15876190Y-55604761D01*
X15923809Y-55652380D01*
X15971428Y-55604761D01*
X15923809Y-55557142D01*
X15923809Y-55652380D01*
X15257142Y-54652380D02*
X15161904Y-54652380D01*
X15066666Y-54700000D01*
X15019047Y-54747619D01*
X14971428Y-54842857D01*
X14923809Y-55033333D01*
X14923809Y-55271428D01*
X14971428Y-55461904D01*
X15019047Y-55557142D01*
X15066666Y-55604761D01*
X15161904Y-55652380D01*
X15257142Y-55652380D01*
X15352380Y-55604761D01*
X15399999Y-55557142D01*
X15447619Y-55461904D01*
X15495238Y-55271428D01*
X15495238Y-55033333D01*
X15447619Y-54842857D01*
X15399999Y-54747619D01*
X15352380Y-54700000D01*
X15257142Y-54652380D01*
D11*
X56278571Y-49078571D02*
X54778571Y-49078571D01*
X55492857Y-49078571D02*
X55492857Y-49935714D01*
X56278571Y-49935714D02*
X54778571Y-49935714D01*
X55492857Y-50650000D02*
X55492857Y-51150000D01*
X56278571Y-51364285D02*
X56278571Y-50650000D01*
X54778571Y-50650000D01*
X54778571Y-51364285D01*
X55850000Y-51935714D02*
X55850000Y-52650000D01*
X56278571Y-51792857D02*
X54778571Y-52292857D01*
X56278571Y-52792857D01*
X54778571Y-53078571D02*
X54778571Y-53935714D01*
X56278571Y-53507142D02*
X54778571Y-53507142D01*
D12*
X40609523Y-34304761D02*
X39942857Y-36304761D01*
X39276190Y-34304761D01*
X38228571Y-34304761D02*
X37847619Y-34304761D01*
X37657142Y-34400000D01*
X37466666Y-34590476D01*
X37371428Y-34971428D01*
X37371428Y-35638095D01*
X37466666Y-36019047D01*
X37657142Y-36209523D01*
X37847619Y-36304761D01*
X38228571Y-36304761D01*
X38419047Y-36209523D01*
X38609523Y-36019047D01*
X38704761Y-35638095D01*
X38704761Y-34971428D01*
X38609523Y-34590476D01*
X38419047Y-34400000D01*
X38228571Y-34304761D01*
X35371428Y-36304761D02*
X36038095Y-35352380D01*
X36514285Y-36304761D02*
X36514285Y-34304761D01*
X35752380Y-34304761D01*
X35561904Y-34400000D01*
X35466666Y-34495238D01*
X35371428Y-34685714D01*
X35371428Y-34971428D01*
X35466666Y-35161904D01*
X35561904Y-35257142D01*
X35752380Y-35352380D01*
X36514285Y-35352380D01*
X34133333Y-34304761D02*
X33752380Y-34304761D01*
X33561904Y-34400000D01*
X33371428Y-34590476D01*
X33276190Y-34971428D01*
X33276190Y-35638095D01*
X33371428Y-36019047D01*
X33561904Y-36209523D01*
X33752380Y-36304761D01*
X34133333Y-36304761D01*
X34323809Y-36209523D01*
X34514285Y-36019047D01*
X34609523Y-35638095D01*
X34609523Y-34971428D01*
X34514285Y-34590476D01*
X34323809Y-34400000D01*
X34133333Y-34304761D01*
X32419047Y-36304761D02*
X32419047Y-34304761D01*
X31276190Y-36304761D01*
X31276190Y-34304761D01*
D10*
X33757142Y-40461904D02*
X33757142Y-39661904D01*
X33490476Y-40233333D01*
X33223809Y-39661904D01*
X33223809Y-40461904D01*
X32690476Y-39661904D02*
X32538095Y-39661904D01*
X32461904Y-39700000D01*
X32385714Y-39776190D01*
X32347619Y-39928571D01*
X32347619Y-40195238D01*
X32385714Y-40347619D01*
X32461904Y-40423809D01*
X32538095Y-40461904D01*
X32690476Y-40461904D01*
X32766666Y-40423809D01*
X32842857Y-40347619D01*
X32880952Y-40195238D01*
X32880952Y-39928571D01*
X32842857Y-39776190D01*
X32766666Y-39700000D01*
X32690476Y-39661904D01*
X32042857Y-40423809D02*
X31928571Y-40461904D01*
X31738095Y-40461904D01*
X31661904Y-40423809D01*
X31623809Y-40385714D01*
X31585714Y-40309523D01*
X31585714Y-40233333D01*
X31623809Y-40157142D01*
X31661904Y-40119047D01*
X31738095Y-40080952D01*
X31890476Y-40042857D01*
X31966666Y-40004761D01*
X32004761Y-39966666D01*
X32042857Y-39890476D01*
X32042857Y-39814285D01*
X32004761Y-39738095D01*
X31966666Y-39700000D01*
X31890476Y-39661904D01*
X31700000Y-39661904D01*
X31585714Y-39700000D01*
X31242857Y-40461904D02*
X31242857Y-39661904D01*
X37852380Y-21951904D02*
X38233333Y-21951904D01*
X38233333Y-21151904D01*
X43073390Y-23103022D02*
X42273390Y-23103022D01*
X42844819Y-23369688D01*
X42273390Y-23636355D01*
X43073390Y-23636355D01*
X42273390Y-24169688D02*
X42273390Y-24322069D01*
X42311486Y-24398260D01*
X42387676Y-24474450D01*
X42540057Y-24512545D01*
X42806724Y-24512545D01*
X42959105Y-24474450D01*
X43035295Y-24398260D01*
X43073390Y-24322069D01*
X43073390Y-24169688D01*
X43035295Y-24093498D01*
X42959105Y-24017307D01*
X42806724Y-23979212D01*
X42540057Y-23979212D01*
X42387676Y-24017307D01*
X42311486Y-24093498D01*
X42273390Y-24169688D01*
X43035295Y-24817307D02*
X43073390Y-24931593D01*
X43073390Y-25122069D01*
X43035295Y-25198260D01*
X42997200Y-25236355D01*
X42921009Y-25274450D01*
X42844819Y-25274450D01*
X42768628Y-25236355D01*
X42730533Y-25198260D01*
X42692438Y-25122069D01*
X42654343Y-24969688D01*
X42616247Y-24893498D01*
X42578152Y-24855403D01*
X42501962Y-24817307D01*
X42425771Y-24817307D01*
X42349581Y-24855403D01*
X42311486Y-24893498D01*
X42273390Y-24969688D01*
X42273390Y-25160165D01*
X42311486Y-25274450D01*
X43073390Y-25617307D02*
X42273390Y-25617307D01*
D11*
X55506428Y-15918571D02*
X55506428Y-14418571D01*
X54935000Y-14418571D01*
X54792142Y-14490000D01*
X54720714Y-14561428D01*
X54649285Y-14704285D01*
X54649285Y-14918571D01*
X54720714Y-15061428D01*
X54792142Y-15132857D01*
X54935000Y-15204285D01*
X55506428Y-15204285D01*
X53149285Y-15918571D02*
X53649285Y-15204285D01*
X54006428Y-15918571D02*
X54006428Y-14418571D01*
X53435000Y-14418571D01*
X53292142Y-14490000D01*
X53220714Y-14561428D01*
X53149285Y-14704285D01*
X53149285Y-14918571D01*
X53220714Y-15061428D01*
X53292142Y-15132857D01*
X53435000Y-15204285D01*
X54006428Y-15204285D01*
X52220714Y-14418571D02*
X51935000Y-14418571D01*
X51792142Y-14490000D01*
X51649285Y-14632857D01*
X51577857Y-14918571D01*
X51577857Y-15418571D01*
X51649285Y-15704285D01*
X51792142Y-15847142D01*
X51935000Y-15918571D01*
X52220714Y-15918571D01*
X52363571Y-15847142D01*
X52506428Y-15704285D01*
X52577857Y-15418571D01*
X52577857Y-14918571D01*
X52506428Y-14632857D01*
X52363571Y-14490000D01*
X52220714Y-14418571D01*
X50435000Y-15132857D02*
X50220714Y-15204285D01*
X50149285Y-15275714D01*
X50077857Y-15418571D01*
X50077857Y-15632857D01*
X50149285Y-15775714D01*
X50220714Y-15847142D01*
X50363571Y-15918571D01*
X50935000Y-15918571D01*
X50935000Y-14418571D01*
X50435000Y-14418571D01*
X50292142Y-14490000D01*
X50220714Y-14561428D01*
X50149285Y-14704285D01*
X50149285Y-14847142D01*
X50220714Y-14990000D01*
X50292142Y-15061428D01*
X50435000Y-15132857D01*
X50935000Y-15132857D01*
X49435000Y-15132857D02*
X48935000Y-15132857D01*
X48720714Y-15918571D02*
X49435000Y-15918571D01*
X49435000Y-14418571D01*
X48720714Y-14418571D01*
X48220714Y-14418571D02*
X47220714Y-14418571D01*
X48220714Y-15918571D01*
X47220714Y-15918571D01*
D10*
X43500000Y-24090476D02*
X43461904Y-24014285D01*
X43461904Y-23900000D01*
X43500000Y-23785714D01*
X43576190Y-23709523D01*
X43652380Y-23671428D01*
X43804761Y-23633333D01*
X43919047Y-23633333D01*
X44071428Y-23671428D01*
X44147619Y-23709523D01*
X44223809Y-23785714D01*
X44261904Y-23900000D01*
X44261904Y-23976190D01*
X44223809Y-24090476D01*
X44185714Y-24128571D01*
X43919047Y-24128571D01*
X43919047Y-23976190D01*
X44261904Y-24471428D02*
X43461904Y-24471428D01*
X44261904Y-24928571D01*
X43461904Y-24928571D01*
X44261904Y-25309523D02*
X43461904Y-25309523D01*
X43461904Y-25500000D01*
X43500000Y-25614285D01*
X43576190Y-25690476D01*
X43652380Y-25728571D01*
X43804761Y-25766666D01*
X43919047Y-25766666D01*
X44071428Y-25728571D01*
X44147619Y-25690476D01*
X44223809Y-25614285D01*
X44261904Y-25500000D01*
X44261904Y-25309523D01*
X25761904Y-34626666D02*
X24961904Y-34626666D01*
X24961904Y-34931428D01*
X25000000Y-35007619D01*
X25038095Y-35045714D01*
X25114285Y-35083809D01*
X25228571Y-35083809D01*
X25304761Y-35045714D01*
X25342857Y-35007619D01*
X25380952Y-34931428D01*
X25380952Y-34626666D01*
X25533333Y-35388571D02*
X25533333Y-35769523D01*
X25761904Y-35312380D02*
X24961904Y-35579047D01*
X25761904Y-35845714D01*
X25761904Y-36531428D02*
X25761904Y-36074285D01*
X25761904Y-36302857D02*
X24961904Y-36302857D01*
X25076190Y-36226666D01*
X25152380Y-36150476D01*
X25190476Y-36074285D01*
X40868571Y-21951904D02*
X40868571Y-21151904D01*
X40868571Y-21532857D02*
X40411428Y-21532857D01*
X40411428Y-21951904D02*
X40411428Y-21151904D01*
X25761904Y-48539523D02*
X24961904Y-48539523D01*
X24961904Y-48844285D01*
X25000000Y-48920476D01*
X25038095Y-48958571D01*
X25114285Y-48996666D01*
X25228571Y-48996666D01*
X25304761Y-48958571D01*
X25342857Y-48920476D01*
X25380952Y-48844285D01*
X25380952Y-48539523D01*
X25342857Y-49606190D02*
X25380952Y-49720476D01*
X25419047Y-49758571D01*
X25495238Y-49796666D01*
X25609523Y-49796666D01*
X25685714Y-49758571D01*
X25723809Y-49720476D01*
X25761904Y-49644285D01*
X25761904Y-49339523D01*
X24961904Y-49339523D01*
X24961904Y-49606190D01*
X25000000Y-49682380D01*
X25038095Y-49720476D01*
X25114285Y-49758571D01*
X25190476Y-49758571D01*
X25266666Y-49720476D01*
X25304761Y-49682380D01*
X25342857Y-49606190D01*
X25342857Y-49339523D01*
X24961904Y-50063333D02*
X24961904Y-50596666D01*
X25761904Y-50253809D01*
X45402380Y-21228095D02*
X45364285Y-21190000D01*
X45288095Y-21151904D01*
X45097619Y-21151904D01*
X45021428Y-21190000D01*
X44983333Y-21228095D01*
X44945238Y-21304285D01*
X44945238Y-21380476D01*
X44983333Y-21494761D01*
X45440476Y-21951904D01*
X44945238Y-21951904D01*
X44259523Y-21418571D02*
X44259523Y-21951904D01*
X44450000Y-21113809D02*
X44640476Y-21685238D01*
X44145238Y-21685238D01*
X43954761Y-21151904D02*
X43688095Y-21951904D01*
X43421428Y-21151904D01*
X33128571Y-37923809D02*
X33014285Y-37961904D01*
X32823809Y-37961904D01*
X32747619Y-37923809D01*
X32709523Y-37885714D01*
X32671428Y-37809523D01*
X32671428Y-37733333D01*
X32709523Y-37657142D01*
X32747619Y-37619047D01*
X32823809Y-37580952D01*
X32976190Y-37542857D01*
X33052380Y-37504761D01*
X33090476Y-37466666D01*
X33128571Y-37390476D01*
X33128571Y-37314285D01*
X33090476Y-37238095D01*
X33052380Y-37200000D01*
X32976190Y-37161904D01*
X32785714Y-37161904D01*
X32671428Y-37200000D01*
X31871428Y-37885714D02*
X31909523Y-37923809D01*
X32023809Y-37961904D01*
X32100000Y-37961904D01*
X32214285Y-37923809D01*
X32290476Y-37847619D01*
X32328571Y-37771428D01*
X32366666Y-37619047D01*
X32366666Y-37504761D01*
X32328571Y-37352380D01*
X32290476Y-37276190D01*
X32214285Y-37200000D01*
X32100000Y-37161904D01*
X32023809Y-37161904D01*
X31909523Y-37200000D01*
X31871428Y-37238095D01*
X31528571Y-37961904D02*
X31528571Y-37161904D01*
X31071428Y-37961904D02*
X31414285Y-37504761D01*
X31071428Y-37161904D02*
X31528571Y-37619047D01*
X43008160Y-30068641D02*
X43046255Y-30030546D01*
X43084350Y-29916260D01*
X43084350Y-29840070D01*
X43046255Y-29725784D01*
X42970065Y-29649594D01*
X42893874Y-29611498D01*
X42741493Y-29573403D01*
X42627207Y-29573403D01*
X42474826Y-29611498D01*
X42398636Y-29649594D01*
X42322446Y-29725784D01*
X42284350Y-29840070D01*
X42284350Y-29916260D01*
X42322446Y-30030546D01*
X42360541Y-30068641D01*
X43046255Y-30373403D02*
X43084350Y-30487689D01*
X43084350Y-30678165D01*
X43046255Y-30754355D01*
X43008160Y-30792451D01*
X42931969Y-30830546D01*
X42855779Y-30830546D01*
X42779588Y-30792451D01*
X42741493Y-30754355D01*
X42703398Y-30678165D01*
X42665303Y-30525784D01*
X42627207Y-30449594D01*
X42589112Y-30411498D01*
X42512922Y-30373403D01*
X42436731Y-30373403D01*
X42360541Y-30411498D01*
X42322446Y-30449594D01*
X42284350Y-30525784D01*
X42284350Y-30716260D01*
X42322446Y-30830546D01*
X34264523Y-21190000D02*
X34340714Y-21151904D01*
X34455000Y-21151904D01*
X34569285Y-21190000D01*
X34645476Y-21266190D01*
X34683571Y-21342380D01*
X34721666Y-21494761D01*
X34721666Y-21609047D01*
X34683571Y-21761428D01*
X34645476Y-21837619D01*
X34569285Y-21913809D01*
X34455000Y-21951904D01*
X34378809Y-21951904D01*
X34264523Y-21913809D01*
X34226428Y-21875714D01*
X34226428Y-21609047D01*
X34378809Y-21609047D01*
X33883571Y-21951904D02*
X33883571Y-21151904D01*
X33426428Y-21951904D01*
X33426428Y-21151904D01*
X33045476Y-21951904D02*
X33045476Y-21151904D01*
X32855000Y-21151904D01*
X32740714Y-21190000D01*
X32664523Y-21266190D01*
X32626428Y-21342380D01*
X32588333Y-21494761D01*
X32588333Y-21609047D01*
X32626428Y-21761428D01*
X32664523Y-21837619D01*
X32740714Y-21913809D01*
X32855000Y-21951904D01*
X33045476Y-21951904D01*
X32033333Y-42985714D02*
X32071428Y-43023809D01*
X32185714Y-43061904D01*
X32261904Y-43061904D01*
X32376190Y-43023809D01*
X32452380Y-42947619D01*
X32490476Y-42871428D01*
X32528571Y-42719047D01*
X32528571Y-42604761D01*
X32490476Y-42452380D01*
X32452380Y-42376190D01*
X32376190Y-42300000D01*
X32261904Y-42261904D01*
X32185714Y-42261904D01*
X32071428Y-42300000D01*
X32033333Y-42338095D01*
X31728571Y-43023809D02*
X31614285Y-43061904D01*
X31423809Y-43061904D01*
X31347619Y-43023809D01*
X31309523Y-42985714D01*
X31271428Y-42909523D01*
X31271428Y-42833333D01*
X31309523Y-42757142D01*
X31347619Y-42719047D01*
X31423809Y-42680952D01*
X31576190Y-42642857D01*
X31652380Y-42604761D01*
X31690476Y-42566666D01*
X31728571Y-42490476D01*
X31728571Y-42414285D01*
X31690476Y-42338095D01*
X31652380Y-42300000D01*
X31576190Y-42261904D01*
X31385714Y-42261904D01*
X31271428Y-42300000D01*
X33657142Y-50761904D02*
X33657142Y-49961904D01*
X33390476Y-50533333D01*
X33123809Y-49961904D01*
X33123809Y-50761904D01*
X32742857Y-50761904D02*
X32742857Y-49961904D01*
X32400000Y-50723809D02*
X32285714Y-50761904D01*
X32095238Y-50761904D01*
X32019047Y-50723809D01*
X31980952Y-50685714D01*
X31942857Y-50609523D01*
X31942857Y-50533333D01*
X31980952Y-50457142D01*
X32019047Y-50419047D01*
X32095238Y-50380952D01*
X32247619Y-50342857D01*
X32323809Y-50304761D01*
X32361904Y-50266666D01*
X32400000Y-50190476D01*
X32400000Y-50114285D01*
X32361904Y-50038095D01*
X32323809Y-50000000D01*
X32247619Y-49961904D01*
X32057142Y-49961904D01*
X31942857Y-50000000D01*
X31447619Y-49961904D02*
X31295238Y-49961904D01*
X31219047Y-50000000D01*
X31142857Y-50076190D01*
X31104761Y-50228571D01*
X31104761Y-50495238D01*
X31142857Y-50647619D01*
X31219047Y-50723809D01*
X31295238Y-50761904D01*
X31447619Y-50761904D01*
X31523809Y-50723809D01*
X31600000Y-50647619D01*
X31638095Y-50495238D01*
X31638095Y-50228571D01*
X31600000Y-50076190D01*
X31523809Y-50000000D01*
X31447619Y-49961904D01*
X44223809Y-26471428D02*
X44261904Y-26585714D01*
X44261904Y-26776190D01*
X44223809Y-26852380D01*
X44185714Y-26890476D01*
X44109523Y-26928571D01*
X44033333Y-26928571D01*
X43957142Y-26890476D01*
X43919047Y-26852380D01*
X43880952Y-26776190D01*
X43842857Y-26623809D01*
X43804761Y-26547619D01*
X43766666Y-26509523D01*
X43690476Y-26471428D01*
X43614285Y-26471428D01*
X43538095Y-26509523D01*
X43500000Y-26547619D01*
X43461904Y-26623809D01*
X43461904Y-26814285D01*
X43500000Y-26928571D01*
X44185714Y-27728571D02*
X44223809Y-27690476D01*
X44261904Y-27576190D01*
X44261904Y-27500000D01*
X44223809Y-27385714D01*
X44147619Y-27309523D01*
X44071428Y-27271428D01*
X43919047Y-27233333D01*
X43804761Y-27233333D01*
X43652380Y-27271428D01*
X43576190Y-27309523D01*
X43500000Y-27385714D01*
X43461904Y-27500000D01*
X43461904Y-27576190D01*
X43500000Y-27690476D01*
X43538095Y-27728571D01*
X44261904Y-28071428D02*
X43461904Y-28071428D01*
X44261904Y-28528571D02*
X43804761Y-28185714D01*
X43461904Y-28528571D02*
X43919047Y-28071428D01*
D11*
X47678571Y-48807142D02*
X46178571Y-48807142D01*
X47250000Y-49307142D01*
X46178571Y-49807142D01*
X47678571Y-49807142D01*
X46178571Y-50807142D02*
X46178571Y-51092857D01*
X46250000Y-51235714D01*
X46392857Y-51378571D01*
X46678571Y-51450000D01*
X47178571Y-51450000D01*
X47464285Y-51378571D01*
X47607142Y-51235714D01*
X47678571Y-51092857D01*
X47678571Y-50807142D01*
X47607142Y-50664285D01*
X47464285Y-50521428D01*
X47178571Y-50450000D01*
X46678571Y-50450000D01*
X46392857Y-50521428D01*
X46250000Y-50664285D01*
X46178571Y-50807142D01*
X46178571Y-51878571D02*
X46178571Y-52735714D01*
X47678571Y-52307142D02*
X46178571Y-52307142D01*
X46178571Y-53521428D02*
X46178571Y-53807142D01*
X46250000Y-53950000D01*
X46392857Y-54092857D01*
X46678571Y-54164285D01*
X47178571Y-54164285D01*
X47464285Y-54092857D01*
X47607142Y-53950000D01*
X47678571Y-53807142D01*
X47678571Y-53521428D01*
X47607142Y-53378571D01*
X47464285Y-53235714D01*
X47178571Y-53164285D01*
X46678571Y-53164285D01*
X46392857Y-53235714D01*
X46250000Y-53378571D01*
X46178571Y-53521428D01*
X47678571Y-55664285D02*
X46964285Y-55164285D01*
X47678571Y-54807142D02*
X46178571Y-54807142D01*
X46178571Y-55378571D01*
X46250000Y-55521428D01*
X46321428Y-55592857D01*
X46464285Y-55664285D01*
X46678571Y-55664285D01*
X46821428Y-55592857D01*
X46892857Y-55521428D01*
X46964285Y-55378571D01*
X46964285Y-54807142D01*
D13*
%TO.C,REF\u002A\u002A*%
X34406522Y-30797038D02*
X35959522Y-30797038D01*
X35959522Y-30797038D02*
X33770182Y-27450728D01*
X33770182Y-27450728D02*
X32217182Y-27450728D01*
X32217182Y-27450728D02*
X34406522Y-30797038D01*
G36*
X35959522Y-30797038D02*
G01*
X34406522Y-30797038D01*
X32217182Y-27450728D01*
X33770182Y-27450728D01*
X35959522Y-30797038D01*
G37*
X35959522Y-30797038D02*
X34406522Y-30797038D01*
X32217182Y-27450728D01*
X33770182Y-27450728D01*
X35959522Y-30797038D01*
X37359262Y-30797038D02*
X38912272Y-30797038D01*
X38912272Y-30797038D02*
X34533642Y-24104418D01*
X34533642Y-24104418D02*
X32980622Y-24104418D01*
X32980622Y-24104418D02*
X37359262Y-30797038D01*
G36*
X38912272Y-30797038D02*
G01*
X37359262Y-30797038D01*
X32980622Y-24104418D01*
X34533642Y-24104418D01*
X38912272Y-30797038D01*
G37*
X38912272Y-30797038D02*
X37359262Y-30797038D01*
X32980622Y-24104418D01*
X34533642Y-24104418D01*
X38912272Y-30797038D01*
X38122722Y-27450728D02*
X39675722Y-27450728D01*
X39675722Y-27450728D02*
X37486392Y-24104418D01*
X37486392Y-24104418D02*
X35933372Y-24104418D01*
X35933372Y-24104418D02*
X38122722Y-27450728D01*
G36*
X39675722Y-27450728D02*
G01*
X38122722Y-27450728D01*
X35933372Y-24104418D01*
X37486392Y-24104418D01*
X39675722Y-27450728D01*
G37*
X39675722Y-27450728D02*
X38122722Y-27450728D01*
X35933372Y-24104418D01*
X37486392Y-24104418D01*
X39675722Y-27450728D01*
D12*
X35944502Y-33602313D02*
X41271918Y-30526518D01*
X30617182Y-30526518D02*
X35944502Y-33602313D01*
X37359262Y-30797038D02*
X32980622Y-24104418D01*
X35944502Y-21299148D02*
X35944502Y-21299148D01*
X35944502Y-21299148D02*
X30617182Y-24374938D01*
X41271918Y-24374938D02*
X35944502Y-21299148D01*
X41271918Y-30526518D02*
X41271918Y-24374938D01*
X30617182Y-24374938D02*
X30617182Y-30526518D01*
X34533642Y-24104418D02*
X38912272Y-30797038D01*
X32980622Y-24104418D02*
X34533642Y-24104418D01*
X38122722Y-27450728D02*
X35933372Y-24104418D01*
X34406522Y-30797038D02*
X34406522Y-30797038D01*
X35959522Y-30797038D02*
X34406522Y-30797038D01*
X33770182Y-27450728D02*
X35959522Y-30797038D01*
X32217182Y-27450728D02*
X33770182Y-27450728D01*
X34406522Y-30797038D02*
X32217182Y-27450728D01*
X37359262Y-30797038D02*
X37359262Y-30797038D01*
X38912272Y-30797038D02*
X37359262Y-30797038D01*
X38122722Y-27450728D02*
X38122722Y-27450728D01*
X39675722Y-27450728D02*
X38122722Y-27450728D01*
X37486392Y-24104418D02*
X39675722Y-27450728D01*
X35933372Y-24104418D02*
X37486392Y-24104418D01*
D14*
%TO.C,J2*%
X50075000Y-41795000D02*
X49325000Y-41795000D01*
X49325000Y-34295000D02*
X49325000Y-32495000D01*
X49325000Y-45095000D02*
X49325000Y-43295000D01*
X44115000Y-45105000D02*
X44115000Y-32485000D01*
X50075000Y-35795000D02*
X50075000Y-41795000D01*
X44875000Y-44345000D02*
X44875000Y-38795000D01*
X49325000Y-35795000D02*
X50075000Y-35795000D01*
X50375000Y-45395000D02*
X49125000Y-45395000D01*
X50375000Y-44145000D02*
X50375000Y-45395000D01*
X50075000Y-32495000D02*
X50075000Y-34295000D01*
X50075000Y-45095000D02*
X49325000Y-45095000D01*
X50075000Y-34295000D02*
X49325000Y-34295000D01*
X47825000Y-45095000D02*
X47825000Y-44345000D01*
X49325000Y-43295000D02*
X50075000Y-43295000D01*
X44875000Y-33245000D02*
X44875000Y-38795000D01*
X47825000Y-44345000D02*
X44875000Y-44345000D01*
X44115000Y-32485000D02*
X50085000Y-32485000D01*
X50075000Y-43295000D02*
X50075000Y-45095000D01*
X50085000Y-45105000D02*
X44115000Y-45105000D01*
X50085000Y-32485000D02*
X50085000Y-45105000D01*
X47825000Y-32495000D02*
X47825000Y-33245000D01*
X49325000Y-41795000D02*
X49325000Y-35795000D01*
X47825000Y-33245000D02*
X44875000Y-33245000D01*
X49325000Y-32495000D02*
X50075000Y-32495000D01*
%TO.C,J10*%
X33820000Y-15555000D02*
X39370000Y-15555000D01*
X45680000Y-20765000D02*
X33060000Y-20765000D01*
X33070000Y-18505000D02*
X33820000Y-18505000D01*
X36370000Y-20755000D02*
X36370000Y-20005000D01*
X42370000Y-20005000D02*
X42370000Y-20755000D01*
X32770000Y-21055000D02*
X32770000Y-19805000D01*
X44920000Y-15555000D02*
X39370000Y-15555000D01*
X34870000Y-20005000D02*
X34870000Y-20755000D01*
X44920000Y-18505000D02*
X44920000Y-15555000D01*
X34020000Y-21055000D02*
X32770000Y-21055000D01*
X36370000Y-20005000D02*
X42370000Y-20005000D01*
X43870000Y-20005000D02*
X45670000Y-20005000D01*
X45670000Y-18505000D02*
X44920000Y-18505000D01*
X33820000Y-18505000D02*
X33820000Y-15555000D01*
X33070000Y-20005000D02*
X34870000Y-20005000D01*
X33060000Y-20765000D02*
X33060000Y-14795000D01*
X45680000Y-14795000D02*
X45680000Y-20765000D01*
X34870000Y-20755000D02*
X33070000Y-20755000D01*
X43870000Y-20755000D02*
X43870000Y-20005000D01*
X42370000Y-20755000D02*
X36370000Y-20755000D01*
X45670000Y-20005000D02*
X45670000Y-20755000D01*
X45670000Y-20755000D02*
X43870000Y-20755000D01*
X33070000Y-20755000D02*
X33070000Y-20005000D01*
X33060000Y-14795000D02*
X45680000Y-14795000D01*
%TO.C,J11*%
X53300000Y-24200000D02*
X56250000Y-24200000D01*
X57010000Y-23440000D02*
X57010000Y-31060000D01*
X51050000Y-23450000D02*
X51800000Y-23450000D01*
X50750000Y-24400000D02*
X50750000Y-23150000D01*
X51050000Y-29250000D02*
X51800000Y-29250000D01*
X51050000Y-26750000D02*
X51800000Y-26750000D01*
X51800000Y-25250000D02*
X51050000Y-25250000D01*
X51800000Y-26750000D02*
X51800000Y-27750000D01*
X51040000Y-31060000D02*
X51040000Y-23440000D01*
X53300000Y-31050000D02*
X53300000Y-30300000D01*
X51050000Y-27750000D02*
X51050000Y-26750000D01*
X51800000Y-29250000D02*
X51800000Y-31050000D01*
X51050000Y-25250000D02*
X51050000Y-23450000D01*
X50750000Y-23150000D02*
X52000000Y-23150000D01*
X51800000Y-31050000D02*
X51050000Y-31050000D01*
X51800000Y-23450000D02*
X51800000Y-25250000D01*
X56250000Y-30300000D02*
X56250000Y-27250000D01*
X56250000Y-24200000D02*
X56250000Y-27250000D01*
X53300000Y-30300000D02*
X56250000Y-30300000D01*
X51800000Y-27750000D02*
X51050000Y-27750000D01*
X51040000Y-23440000D02*
X57010000Y-23440000D01*
X51050000Y-31050000D02*
X51050000Y-29250000D01*
X57010000Y-31060000D02*
X51040000Y-31060000D01*
X53300000Y-23450000D02*
X53300000Y-24200000D01*
%TO.C,J12*%
X51050000Y-33750000D02*
X51050000Y-31950000D01*
X51050000Y-31950000D02*
X51800000Y-31950000D01*
X51800000Y-35250000D02*
X51800000Y-36250000D01*
X51050000Y-36250000D02*
X51050000Y-35250000D01*
X56250000Y-32700000D02*
X56250000Y-35750000D01*
X53300000Y-39550000D02*
X53300000Y-38800000D01*
X51050000Y-37750000D02*
X51800000Y-37750000D01*
X50750000Y-31650000D02*
X52000000Y-31650000D01*
X53300000Y-38800000D02*
X56250000Y-38800000D01*
X57010000Y-31940000D02*
X57010000Y-39560000D01*
X51800000Y-33750000D02*
X51050000Y-33750000D01*
X57010000Y-39560000D02*
X51040000Y-39560000D01*
X50750000Y-32900000D02*
X50750000Y-31650000D01*
X51800000Y-37750000D02*
X51800000Y-39550000D01*
X51040000Y-39560000D02*
X51040000Y-31940000D01*
X51800000Y-31950000D02*
X51800000Y-33750000D01*
X51800000Y-39550000D02*
X51050000Y-39550000D01*
X51040000Y-31940000D02*
X57010000Y-31940000D01*
X53300000Y-32700000D02*
X56250000Y-32700000D01*
X53300000Y-31950000D02*
X53300000Y-32700000D01*
X56250000Y-38800000D02*
X56250000Y-35750000D01*
X51800000Y-36250000D02*
X51050000Y-36250000D01*
X51050000Y-35250000D02*
X51800000Y-35250000D01*
X51050000Y-39550000D02*
X51050000Y-37750000D01*
%TO.C,J13*%
X51793654Y-46271373D02*
X51793654Y-48071373D01*
X57003654Y-40461373D02*
X57003654Y-48081373D01*
X50743654Y-40171373D02*
X51993654Y-40171373D01*
X51793654Y-40471373D02*
X51793654Y-42271373D01*
X51043654Y-44771373D02*
X51043654Y-43771373D01*
X51033654Y-40461373D02*
X57003654Y-40461373D01*
X51793654Y-43771373D02*
X51793654Y-44771373D01*
X51043654Y-43771373D02*
X51793654Y-43771373D01*
X50743654Y-41421373D02*
X50743654Y-40171373D01*
X56243654Y-41221373D02*
X56243654Y-44271373D01*
X53293654Y-48071373D02*
X53293654Y-47321373D01*
X51043654Y-46271373D02*
X51793654Y-46271373D01*
X53293654Y-40471373D02*
X53293654Y-41221373D01*
X51793654Y-48071373D02*
X51043654Y-48071373D01*
X51793654Y-42271373D02*
X51043654Y-42271373D01*
X56243654Y-47321373D02*
X56243654Y-44271373D01*
X51793654Y-44771373D02*
X51043654Y-44771373D01*
X53293654Y-47321373D02*
X56243654Y-47321373D01*
X51033654Y-48081373D02*
X51033654Y-40461373D01*
X57003654Y-48081373D02*
X51033654Y-48081373D01*
X53293654Y-41221373D02*
X56243654Y-41221373D01*
X51043654Y-42271373D02*
X51043654Y-40471373D01*
X51043654Y-48071373D02*
X51043654Y-46271373D01*
X51043654Y-40471373D02*
X51793654Y-40471373D01*
%TO.C,J14*%
X57004261Y-16547116D02*
X57004261Y-17297116D01*
X50204261Y-16547116D02*
X53704261Y-16547116D01*
X56054261Y-16247116D02*
X57304261Y-16247116D01*
X55204261Y-17297116D02*
X55204261Y-16547116D01*
X57004261Y-18797116D02*
X56254261Y-18797116D01*
X47654261Y-21747116D02*
X51954261Y-21747116D01*
X46894261Y-16537116D02*
X57014261Y-16537116D01*
X57004261Y-17297116D02*
X55204261Y-17297116D01*
X48704261Y-16547116D02*
X48704261Y-17297116D01*
X50204261Y-17297116D02*
X50204261Y-16547116D01*
X57014261Y-16537116D02*
X57014261Y-22507116D01*
X56254261Y-18797116D02*
X56254261Y-21747116D01*
X46904261Y-16547116D02*
X48704261Y-16547116D01*
X56254261Y-21747116D02*
X51954261Y-21747116D01*
X53704261Y-16547116D02*
X53704261Y-17297116D01*
X57304261Y-16247116D02*
X57304261Y-17497116D01*
X57014261Y-22507116D02*
X46894261Y-22507116D01*
X47654261Y-18797116D02*
X47654261Y-21747116D01*
X48704261Y-17297116D02*
X46904261Y-17297116D01*
X46894261Y-22507116D02*
X46894261Y-16537116D01*
X46904261Y-18797116D02*
X47654261Y-18797116D01*
X46904261Y-17297116D02*
X46904261Y-16547116D01*
X53704261Y-17297116D02*
X50204261Y-17297116D01*
X55204261Y-16547116D02*
X57004261Y-16547116D01*
%TO.C,C21*%
X32504437Y-52810000D02*
X34190000Y-52810000D01*
X38710000Y-53550000D02*
X37710000Y-53550000D01*
X32504437Y-52810000D02*
X31440000Y-51745563D01*
X31440000Y-44290000D02*
X34190000Y-44290000D01*
X38895563Y-52810000D02*
X39960000Y-51745563D01*
X38895563Y-52810000D02*
X37210000Y-52810000D01*
X39960000Y-51745563D02*
X39960000Y-44290000D01*
X31440000Y-51745563D02*
X31440000Y-44290000D01*
X38210000Y-54050000D02*
X38210000Y-53050000D01*
X39960000Y-44290000D02*
X37210000Y-44290000D01*
%TO.C,J8*%
X17939203Y-51993659D02*
X17939203Y-51243659D01*
X17939203Y-51243659D02*
X21439203Y-51243659D01*
X14639203Y-51993659D02*
X14639203Y-51243659D01*
X22939203Y-51993659D02*
X22939203Y-51243659D01*
X23989203Y-49743659D02*
X23989203Y-46793659D01*
X14339203Y-52293659D02*
X14339203Y-51043659D01*
X24749203Y-52003659D02*
X14629203Y-52003659D01*
X24739203Y-51993659D02*
X22939203Y-51993659D01*
X14639203Y-49743659D02*
X15389203Y-49743659D01*
X15589203Y-52293659D02*
X14339203Y-52293659D01*
X14629203Y-52003659D02*
X14629203Y-46033659D01*
X23989203Y-46793659D02*
X19689203Y-46793659D01*
X21439203Y-51993659D02*
X17939203Y-51993659D01*
X22939203Y-51243659D02*
X24739203Y-51243659D01*
X24749203Y-46033659D02*
X24749203Y-52003659D01*
X16439203Y-51243659D02*
X16439203Y-51993659D01*
X24739203Y-49743659D02*
X23989203Y-49743659D01*
X21439203Y-51243659D02*
X21439203Y-51993659D01*
X15389203Y-46793659D02*
X19689203Y-46793659D01*
X16439203Y-51993659D02*
X14639203Y-51993659D01*
X24739203Y-51243659D02*
X24739203Y-51993659D01*
X14639203Y-51243659D02*
X16439203Y-51243659D01*
X14629203Y-46033659D02*
X24749203Y-46033659D01*
X15389203Y-49743659D02*
X15389203Y-46793659D01*
%TO.C,J3*%
X21375000Y-38215000D02*
X17875000Y-38215000D01*
X14575000Y-37465000D02*
X16375000Y-37465000D01*
X16375000Y-38215000D02*
X14575000Y-38215000D01*
X14275000Y-38515000D02*
X14275000Y-37265000D01*
X24675000Y-38215000D02*
X22875000Y-38215000D01*
X14575000Y-38215000D02*
X14575000Y-37465000D01*
X22875000Y-38215000D02*
X22875000Y-37465000D01*
X21375000Y-37465000D02*
X21375000Y-38215000D01*
X14575000Y-35965000D02*
X15325000Y-35965000D01*
X17875000Y-38215000D02*
X17875000Y-37465000D01*
X23925000Y-33015000D02*
X19625000Y-33015000D01*
X15325000Y-33015000D02*
X19625000Y-33015000D01*
X16375000Y-37465000D02*
X16375000Y-38215000D01*
X24675000Y-35965000D02*
X23925000Y-35965000D01*
X23925000Y-35965000D02*
X23925000Y-33015000D01*
X24685000Y-38225000D02*
X14565000Y-38225000D01*
X14565000Y-32255000D02*
X24685000Y-32255000D01*
X17875000Y-37465000D02*
X21375000Y-37465000D01*
X24685000Y-32255000D02*
X24685000Y-38225000D01*
X14565000Y-38225000D02*
X14565000Y-32255000D01*
X24675000Y-37465000D02*
X24675000Y-38215000D01*
X15525000Y-38515000D02*
X14275000Y-38515000D01*
X15325000Y-35965000D02*
X15325000Y-33015000D01*
X22875000Y-37465000D02*
X24675000Y-37465000D01*
%TO.C,J9*%
X24200000Y-29290000D02*
X21250000Y-29290000D01*
X20490000Y-30050000D02*
X20490000Y-22430000D01*
X26450000Y-26740000D02*
X25700000Y-26740000D01*
X25700000Y-24240000D02*
X25700000Y-22440000D01*
X25700000Y-22440000D02*
X26450000Y-22440000D01*
X25700000Y-25740000D02*
X26450000Y-25740000D01*
X26450000Y-22440000D02*
X26450000Y-24240000D01*
X21250000Y-29290000D02*
X21250000Y-26240000D01*
X25700000Y-28240000D02*
X26450000Y-28240000D01*
X24200000Y-22440000D02*
X24200000Y-23190000D01*
X20490000Y-22430000D02*
X26460000Y-22430000D01*
X26450000Y-28240000D02*
X26450000Y-30040000D01*
X26750000Y-29090000D02*
X26750000Y-30340000D01*
X26450000Y-24240000D02*
X25700000Y-24240000D01*
X26450000Y-30040000D02*
X25700000Y-30040000D01*
X26460000Y-22430000D02*
X26460000Y-30050000D01*
X21250000Y-23190000D02*
X21250000Y-26240000D01*
X26450000Y-25740000D02*
X26450000Y-26740000D01*
X24200000Y-30040000D02*
X24200000Y-29290000D01*
X26460000Y-30050000D02*
X20490000Y-30050000D01*
X25700000Y-30040000D02*
X25700000Y-28240000D01*
X26750000Y-30340000D02*
X25500000Y-30340000D01*
X24200000Y-23190000D02*
X21250000Y-23190000D01*
X25700000Y-26740000D02*
X25700000Y-25740000D01*
%TO.C,J7*%
X24715000Y-45090000D02*
X22915000Y-45090000D01*
X24715000Y-44340000D02*
X24715000Y-45090000D01*
X15565000Y-45390000D02*
X14315000Y-45390000D01*
X15365000Y-39890000D02*
X19665000Y-39890000D01*
X22915000Y-44340000D02*
X24715000Y-44340000D01*
X14605000Y-45100000D02*
X14605000Y-39130000D01*
X17915000Y-45090000D02*
X17915000Y-44340000D01*
X21415000Y-45090000D02*
X17915000Y-45090000D01*
X15365000Y-42840000D02*
X15365000Y-39890000D01*
X24725000Y-39130000D02*
X24725000Y-45100000D01*
X24715000Y-42840000D02*
X23965000Y-42840000D01*
X14315000Y-45390000D02*
X14315000Y-44140000D01*
X21415000Y-44340000D02*
X21415000Y-45090000D01*
X14605000Y-39130000D02*
X24725000Y-39130000D01*
X14615000Y-45090000D02*
X14615000Y-44340000D01*
X17915000Y-44340000D02*
X21415000Y-44340000D01*
X14615000Y-44340000D02*
X16415000Y-44340000D01*
X16415000Y-45090000D02*
X14615000Y-45090000D01*
X22915000Y-45090000D02*
X22915000Y-44340000D01*
X16415000Y-44340000D02*
X16415000Y-45090000D01*
X14615000Y-42840000D02*
X15365000Y-42840000D01*
X23965000Y-42840000D02*
X23965000Y-39890000D01*
X23965000Y-39890000D02*
X19665000Y-39890000D01*
X24725000Y-45100000D02*
X14605000Y-45100000D01*
%TO.C,J15*%
X46995000Y-23450000D02*
X44395000Y-23450000D01*
X49595000Y-31190000D02*
X44395000Y-31190000D01*
X46995000Y-26050000D02*
X46995000Y-23450000D01*
X49595000Y-24780000D02*
X49595000Y-23450000D01*
X49595000Y-26050000D02*
X46995000Y-26050000D01*
X49595000Y-26050000D02*
X49595000Y-31190000D01*
X49595000Y-23450000D02*
X48265000Y-23450000D01*
X44395000Y-23450000D02*
X44395000Y-31190000D01*
%TD*%
M02*
