%TF.GenerationSoftware,KiCad,Pcbnew,(6.0.2)*%
%TF.CreationDate,2022-03-22T21:07:05-04:00*%
%TF.ProjectId,turbocan,74757262-6f63-4616-9e2e-6b696361645f,rev?*%
%TF.SameCoordinates,Original*%
%TF.FileFunction,Legend,Top*%
%TF.FilePolarity,Positive*%
%FSLAX46Y46*%
G04 Gerber Fmt 4.6, Leading zero omitted, Abs format (unit mm)*
G04 Created by KiCad (PCBNEW (6.0.2)) date 2022-03-22 21:07:05*
%MOMM*%
%LPD*%
G01*
G04 APERTURE LIST*
%ADD10C,0.150000*%
%ADD11C,0.120000*%
%ADD12C,0.100000*%
%ADD13C,0.200000*%
G04 APERTURE END LIST*
D10*
X20669523Y-23056904D02*
X21126666Y-23056904D01*
X20898095Y-23856904D02*
X20898095Y-23056904D01*
X21393333Y-23856904D02*
X21393333Y-23056904D01*
X21393333Y-23437857D02*
X21850476Y-23437857D01*
X21850476Y-23856904D02*
X21850476Y-23056904D01*
X22802857Y-23018809D02*
X22117142Y-24047380D01*
X23069523Y-23856904D02*
X23069523Y-23056904D01*
X23374285Y-23056904D01*
X23450476Y-23095000D01*
X23488571Y-23133095D01*
X23526666Y-23209285D01*
X23526666Y-23323571D01*
X23488571Y-23399761D01*
X23450476Y-23437857D01*
X23374285Y-23475952D01*
X23069523Y-23475952D01*
X23831428Y-23628333D02*
X24212380Y-23628333D01*
X23755238Y-23856904D02*
X24021904Y-23056904D01*
X24288571Y-23856904D01*
X24707619Y-23056904D02*
X24783809Y-23056904D01*
X24860000Y-23095000D01*
X24898095Y-23133095D01*
X24936190Y-23209285D01*
X24974285Y-23361666D01*
X24974285Y-23552142D01*
X24936190Y-23704523D01*
X24898095Y-23780714D01*
X24860000Y-23818809D01*
X24783809Y-23856904D01*
X24707619Y-23856904D01*
X24631428Y-23818809D01*
X24593333Y-23780714D01*
X24555238Y-23704523D01*
X24517142Y-23552142D01*
X24517142Y-23361666D01*
X24555238Y-23209285D01*
X24593333Y-23133095D01*
X24631428Y-23095000D01*
X24707619Y-23056904D01*
X26210752Y-48392316D02*
X26258371Y-48249459D01*
X26258371Y-48011364D01*
X26210752Y-47916126D01*
X26163133Y-47868507D01*
X26067895Y-47820888D01*
X25972657Y-47820888D01*
X25877419Y-47868507D01*
X25829800Y-47916126D01*
X25782181Y-48011364D01*
X25734562Y-48201840D01*
X25686943Y-48297078D01*
X25639324Y-48344697D01*
X25544086Y-48392316D01*
X25448848Y-48392316D01*
X25353610Y-48344697D01*
X25305991Y-48297078D01*
X25258371Y-48201840D01*
X25258371Y-47963745D01*
X25305991Y-47820888D01*
X26258371Y-47392316D02*
X25258371Y-47392316D01*
X25258371Y-47011364D01*
X25305991Y-46916126D01*
X25353610Y-46868507D01*
X25448848Y-46820888D01*
X25591705Y-46820888D01*
X25686943Y-46868507D01*
X25734562Y-46916126D01*
X25782181Y-47011364D01*
X25782181Y-47392316D01*
X26258371Y-45820888D02*
X25782181Y-46154221D01*
X26258371Y-46392316D02*
X25258371Y-46392316D01*
X25258371Y-46011364D01*
X25305991Y-45916126D01*
X25353610Y-45868507D01*
X25448848Y-45820888D01*
X25591705Y-45820888D01*
X25686943Y-45868507D01*
X25734562Y-45916126D01*
X25782181Y-46011364D01*
X25782181Y-46392316D01*
X25734562Y-45392316D02*
X25734562Y-45058983D01*
X26258371Y-44916126D02*
X26258371Y-45392316D01*
X25258371Y-45392316D01*
X25258371Y-44916126D01*
X25972657Y-44535173D02*
X25972657Y-44058983D01*
X26258371Y-44630411D02*
X25258371Y-44297078D01*
X26258371Y-43963745D01*
X26258371Y-43630411D02*
X25258371Y-43630411D01*
X25258371Y-43392316D01*
X25305991Y-43249459D01*
X25401229Y-43154221D01*
X25496467Y-43106602D01*
X25686943Y-43058983D01*
X25829800Y-43058983D01*
X26020276Y-43106602D01*
X26115514Y-43154221D01*
X26210752Y-43249459D01*
X26258371Y-43392316D01*
X26258371Y-43630411D01*
X23479285Y-50670125D02*
X23479285Y-49670125D01*
X23812619Y-50384411D01*
X24145952Y-49670125D01*
X24145952Y-50670125D01*
X24574523Y-50622506D02*
X24717380Y-50670125D01*
X24955476Y-50670125D01*
X25050714Y-50622506D01*
X25098333Y-50574887D01*
X25145952Y-50479649D01*
X25145952Y-50384411D01*
X25098333Y-50289173D01*
X25050714Y-50241554D01*
X24955476Y-50193935D01*
X24765000Y-50146316D01*
X24669761Y-50098697D01*
X24622142Y-50051078D01*
X24574523Y-49955840D01*
X24574523Y-49860602D01*
X24622142Y-49765364D01*
X24669761Y-49717745D01*
X24765000Y-49670125D01*
X25003095Y-49670125D01*
X25145952Y-49717745D01*
X25526904Y-49765364D02*
X25574523Y-49717745D01*
X25669761Y-49670125D01*
X25907857Y-49670125D01*
X26003095Y-49717745D01*
X26050714Y-49765364D01*
X26098333Y-49860602D01*
X26098333Y-49955840D01*
X26050714Y-50098697D01*
X25479285Y-50670125D01*
X26098333Y-50670125D01*
X56241904Y-47230952D02*
X55441904Y-47230952D01*
X55822857Y-47230952D02*
X55822857Y-46773809D01*
X56241904Y-46773809D02*
X55441904Y-46773809D01*
X55822857Y-46392857D02*
X55822857Y-46126190D01*
X56241904Y-46011904D02*
X56241904Y-46392857D01*
X55441904Y-46392857D01*
X55441904Y-46011904D01*
X56013333Y-45707142D02*
X56013333Y-45326190D01*
X56241904Y-45783333D02*
X55441904Y-45516666D01*
X56241904Y-45250000D01*
X55441904Y-45097619D02*
X55441904Y-44640476D01*
X56241904Y-44869047D02*
X55441904Y-44869047D01*
X55403809Y-43802380D02*
X56432380Y-44488095D01*
X56241904Y-43535714D02*
X55441904Y-43535714D01*
X55441904Y-43230952D01*
X55480000Y-43154761D01*
X55518095Y-43116666D01*
X55594285Y-43078571D01*
X55708571Y-43078571D01*
X55784761Y-43116666D01*
X55822857Y-43154761D01*
X55860952Y-43230952D01*
X55860952Y-43535714D01*
X56013333Y-42773809D02*
X56013333Y-42392857D01*
X56241904Y-42850000D02*
X55441904Y-42583333D01*
X56241904Y-42316666D01*
X55784761Y-41935714D02*
X55746666Y-42011904D01*
X55708571Y-42050000D01*
X55632380Y-42088095D01*
X55594285Y-42088095D01*
X55518095Y-42050000D01*
X55480000Y-42011904D01*
X55441904Y-41935714D01*
X55441904Y-41783333D01*
X55480000Y-41707142D01*
X55518095Y-41669047D01*
X55594285Y-41630952D01*
X55632380Y-41630952D01*
X55708571Y-41669047D01*
X55746666Y-41707142D01*
X55784761Y-41783333D01*
X55784761Y-41935714D01*
X55822857Y-42011904D01*
X55860952Y-42050000D01*
X55937142Y-42088095D01*
X56089523Y-42088095D01*
X56165714Y-42050000D01*
X56203809Y-42011904D01*
X56241904Y-41935714D01*
X56241904Y-41783333D01*
X56203809Y-41707142D01*
X56165714Y-41669047D01*
X56089523Y-41630952D01*
X55937142Y-41630952D01*
X55860952Y-41669047D01*
X55822857Y-41707142D01*
X55784761Y-41783333D01*
X14878095Y-34626666D02*
X15678095Y-34626666D01*
X15678095Y-34931428D01*
X15640000Y-35007619D01*
X15601904Y-35045714D01*
X15525714Y-35083809D01*
X15411428Y-35083809D01*
X15335238Y-35045714D01*
X15297142Y-35007619D01*
X15259047Y-34931428D01*
X15259047Y-34626666D01*
X15106666Y-35388571D02*
X15106666Y-35769523D01*
X14878095Y-35312380D02*
X15678095Y-35579047D01*
X14878095Y-35845714D01*
X14878095Y-36531428D02*
X14878095Y-36074285D01*
X14878095Y-36302857D02*
X15678095Y-36302857D01*
X15563809Y-36226666D01*
X15487619Y-36150476D01*
X15449523Y-36074285D01*
X23690476Y-15241714D02*
X23652380Y-15279809D01*
X23538095Y-15317904D01*
X23461904Y-15317904D01*
X23347619Y-15279809D01*
X23271428Y-15203619D01*
X23233333Y-15127428D01*
X23195238Y-14975047D01*
X23195238Y-14860761D01*
X23233333Y-14708380D01*
X23271428Y-14632190D01*
X23347619Y-14556000D01*
X23461904Y-14517904D01*
X23538095Y-14517904D01*
X23652380Y-14556000D01*
X23690476Y-14594095D01*
X23995238Y-15089333D02*
X24376190Y-15089333D01*
X23919047Y-15317904D02*
X24185714Y-14517904D01*
X24452380Y-15317904D01*
X24719047Y-15317904D02*
X24719047Y-14517904D01*
X25176190Y-15317904D01*
X25176190Y-14517904D01*
X22452380Y-15805904D02*
X22909523Y-15805904D01*
X22680952Y-16605904D02*
X22680952Y-15805904D01*
X23176190Y-16186857D02*
X23442857Y-16186857D01*
X23557142Y-16605904D02*
X23176190Y-16605904D01*
X23176190Y-15805904D01*
X23557142Y-15805904D01*
X24357142Y-16605904D02*
X24090476Y-16224952D01*
X23900000Y-16605904D02*
X23900000Y-15805904D01*
X24204761Y-15805904D01*
X24280952Y-15844000D01*
X24319047Y-15882095D01*
X24357142Y-15958285D01*
X24357142Y-16072571D01*
X24319047Y-16148761D01*
X24280952Y-16186857D01*
X24204761Y-16224952D01*
X23900000Y-16224952D01*
X24700000Y-16605904D02*
X24700000Y-15805904D01*
X24966666Y-16377333D01*
X25233333Y-15805904D01*
X25233333Y-16605904D01*
X55822857Y-29876428D02*
X55822857Y-30143095D01*
X56241904Y-30143095D02*
X55441904Y-30143095D01*
X55441904Y-29762142D01*
X56013333Y-29495476D02*
X56013333Y-29114523D01*
X56241904Y-29571666D02*
X55441904Y-29305000D01*
X56241904Y-29038333D01*
X56241904Y-28771666D02*
X55441904Y-28771666D01*
X56241904Y-28314523D01*
X55441904Y-28314523D01*
X55441904Y-27781190D02*
X55441904Y-27705000D01*
X55480000Y-27628809D01*
X55518095Y-27590714D01*
X55594285Y-27552619D01*
X55746666Y-27514523D01*
X55937142Y-27514523D01*
X56089523Y-27552619D01*
X56165714Y-27590714D01*
X56203809Y-27628809D01*
X56241904Y-27705000D01*
X56241904Y-27781190D01*
X56203809Y-27857380D01*
X56165714Y-27895476D01*
X56089523Y-27933571D01*
X55937142Y-27971666D01*
X55746666Y-27971666D01*
X55594285Y-27933571D01*
X55518095Y-27895476D01*
X55480000Y-27857380D01*
X55441904Y-27781190D01*
X55403809Y-26600238D02*
X56432380Y-27285952D01*
X56241904Y-26333571D02*
X55441904Y-26333571D01*
X55441904Y-26028809D01*
X55480000Y-25952619D01*
X55518095Y-25914523D01*
X55594285Y-25876428D01*
X55708571Y-25876428D01*
X55784761Y-25914523D01*
X55822857Y-25952619D01*
X55860952Y-26028809D01*
X55860952Y-26333571D01*
X56013333Y-25571666D02*
X56013333Y-25190714D01*
X56241904Y-25647857D02*
X55441904Y-25381190D01*
X56241904Y-25114523D01*
X55518095Y-24885952D02*
X55480000Y-24847857D01*
X55441904Y-24771666D01*
X55441904Y-24581190D01*
X55480000Y-24505000D01*
X55518095Y-24466904D01*
X55594285Y-24428809D01*
X55670476Y-24428809D01*
X55784761Y-24466904D01*
X56241904Y-24924047D01*
X56241904Y-24428809D01*
X55822857Y-38131428D02*
X55822857Y-38398095D01*
X56241904Y-38398095D02*
X55441904Y-38398095D01*
X55441904Y-38017142D01*
X56013333Y-37750476D02*
X56013333Y-37369523D01*
X56241904Y-37826666D02*
X55441904Y-37560000D01*
X56241904Y-37293333D01*
X56241904Y-37026666D02*
X55441904Y-37026666D01*
X56241904Y-36569523D01*
X55441904Y-36569523D01*
X56241904Y-35769523D02*
X56241904Y-36226666D01*
X56241904Y-35998095D02*
X55441904Y-35998095D01*
X55556190Y-36074285D01*
X55632380Y-36150476D01*
X55670476Y-36226666D01*
X55403809Y-34855238D02*
X56432380Y-35540952D01*
X56241904Y-34588571D02*
X55441904Y-34588571D01*
X55441904Y-34283809D01*
X55480000Y-34207619D01*
X55518095Y-34169523D01*
X55594285Y-34131428D01*
X55708571Y-34131428D01*
X55784761Y-34169523D01*
X55822857Y-34207619D01*
X55860952Y-34283809D01*
X55860952Y-34588571D01*
X56013333Y-33826666D02*
X56013333Y-33445714D01*
X56241904Y-33902857D02*
X55441904Y-33636190D01*
X56241904Y-33369523D01*
X55441904Y-33179047D02*
X55441904Y-32683809D01*
X55746666Y-32950476D01*
X55746666Y-32836190D01*
X55784761Y-32760000D01*
X55822857Y-32721904D01*
X55899047Y-32683809D01*
X56089523Y-32683809D01*
X56165714Y-32721904D01*
X56203809Y-32760000D01*
X56241904Y-32836190D01*
X56241904Y-33064761D01*
X56203809Y-33140952D01*
X56165714Y-33179047D01*
X49561904Y-56241904D02*
X49561904Y-55441904D01*
X49561904Y-55822857D02*
X50019047Y-55822857D01*
X50019047Y-56241904D02*
X50019047Y-55441904D01*
X50400000Y-55822857D02*
X50666666Y-55822857D01*
X50780952Y-56241904D02*
X50400000Y-56241904D01*
X50400000Y-55441904D01*
X50780952Y-55441904D01*
X51085714Y-56013333D02*
X51466666Y-56013333D01*
X51009523Y-56241904D02*
X51276190Y-55441904D01*
X51542857Y-56241904D01*
X51695238Y-55441904D02*
X52152380Y-55441904D01*
X51923809Y-56241904D02*
X51923809Y-55441904D01*
X15861309Y-53427380D02*
X15861309Y-54141666D01*
X15813690Y-54284523D01*
X15718452Y-54379761D01*
X15575595Y-54427380D01*
X15480357Y-54427380D01*
X16813690Y-54427380D02*
X16337500Y-54427380D01*
X16337500Y-53427380D01*
X17718452Y-54332142D02*
X17670833Y-54379761D01*
X17527976Y-54427380D01*
X17432738Y-54427380D01*
X17289880Y-54379761D01*
X17194642Y-54284523D01*
X17147023Y-54189285D01*
X17099404Y-53998809D01*
X17099404Y-53855952D01*
X17147023Y-53665476D01*
X17194642Y-53570238D01*
X17289880Y-53475000D01*
X17432738Y-53427380D01*
X17527976Y-53427380D01*
X17670833Y-53475000D01*
X17718452Y-53522619D01*
X18432738Y-53427380D02*
X18432738Y-54141666D01*
X18385119Y-54284523D01*
X18289880Y-54379761D01*
X18147023Y-54427380D01*
X18051785Y-54427380D01*
X19385119Y-54427380D02*
X18908928Y-54427380D01*
X18908928Y-53427380D01*
X20289880Y-54332142D02*
X20242261Y-54379761D01*
X20099404Y-54427380D01*
X20004166Y-54427380D01*
X19861309Y-54379761D01*
X19766071Y-54284523D01*
X19718452Y-54189285D01*
X19670833Y-53998809D01*
X19670833Y-53855952D01*
X19718452Y-53665476D01*
X19766071Y-53570238D01*
X19861309Y-53475000D01*
X20004166Y-53427380D01*
X20099404Y-53427380D01*
X20242261Y-53475000D01*
X20289880Y-53522619D01*
X21004166Y-53427380D02*
X21004166Y-54141666D01*
X20956547Y-54284523D01*
X20861309Y-54379761D01*
X20718452Y-54427380D01*
X20623214Y-54427380D01*
X21956547Y-54427380D02*
X21480357Y-54427380D01*
X21480357Y-53427380D01*
X22861309Y-54332142D02*
X22813690Y-54379761D01*
X22670833Y-54427380D01*
X22575595Y-54427380D01*
X22432738Y-54379761D01*
X22337500Y-54284523D01*
X22289880Y-54189285D01*
X22242261Y-53998809D01*
X22242261Y-53855952D01*
X22289880Y-53665476D01*
X22337500Y-53570238D01*
X22432738Y-53475000D01*
X22575595Y-53427380D01*
X22670833Y-53427380D01*
X22813690Y-53475000D01*
X22861309Y-53522619D01*
X16313333Y-17087857D02*
X16427619Y-17125952D01*
X16465714Y-17164047D01*
X16503809Y-17240238D01*
X16503809Y-17354523D01*
X16465714Y-17430714D01*
X16427619Y-17468809D01*
X16351428Y-17506904D01*
X16046666Y-17506904D01*
X16046666Y-16706904D01*
X16313333Y-16706904D01*
X16389523Y-16745000D01*
X16427619Y-16783095D01*
X16465714Y-16859285D01*
X16465714Y-16935476D01*
X16427619Y-17011666D01*
X16389523Y-17049761D01*
X16313333Y-17087857D01*
X16046666Y-17087857D01*
X16999047Y-16706904D02*
X17151428Y-16706904D01*
X17227619Y-16745000D01*
X17303809Y-16821190D01*
X17341904Y-16973571D01*
X17341904Y-17240238D01*
X17303809Y-17392619D01*
X17227619Y-17468809D01*
X17151428Y-17506904D01*
X16999047Y-17506904D01*
X16922857Y-17468809D01*
X16846666Y-17392619D01*
X16808571Y-17240238D01*
X16808571Y-16973571D01*
X16846666Y-16821190D01*
X16922857Y-16745000D01*
X16999047Y-16706904D01*
X17837142Y-16706904D02*
X17989523Y-16706904D01*
X18065714Y-16745000D01*
X18141904Y-16821190D01*
X18180000Y-16973571D01*
X18180000Y-17240238D01*
X18141904Y-17392619D01*
X18065714Y-17468809D01*
X17989523Y-17506904D01*
X17837142Y-17506904D01*
X17760952Y-17468809D01*
X17684761Y-17392619D01*
X17646666Y-17240238D01*
X17646666Y-16973571D01*
X17684761Y-16821190D01*
X17760952Y-16745000D01*
X17837142Y-16706904D01*
X18408571Y-16706904D02*
X18865714Y-16706904D01*
X18637142Y-17506904D02*
X18637142Y-16706904D01*
X19284761Y-16706904D02*
X19360952Y-16706904D01*
X19437142Y-16745000D01*
X19475238Y-16783095D01*
X19513333Y-16859285D01*
X19551428Y-17011666D01*
X19551428Y-17202142D01*
X19513333Y-17354523D01*
X19475238Y-17430714D01*
X19437142Y-17468809D01*
X19360952Y-17506904D01*
X19284761Y-17506904D01*
X19208571Y-17468809D01*
X19170476Y-17430714D01*
X19132380Y-17354523D01*
X19094285Y-17202142D01*
X19094285Y-17011666D01*
X19132380Y-16859285D01*
X19170476Y-16783095D01*
X19208571Y-16745000D01*
X19284761Y-16706904D01*
X21158333Y-56241904D02*
X21158333Y-55441904D01*
X21463095Y-55441904D01*
X21539285Y-55480000D01*
X21577380Y-55518095D01*
X21615476Y-55594285D01*
X21615476Y-55708571D01*
X21577380Y-55784761D01*
X21539285Y-55822857D01*
X21463095Y-55860952D01*
X21158333Y-55860952D01*
X21882142Y-55441904D02*
X22072619Y-56241904D01*
X22225000Y-55670476D01*
X22377380Y-56241904D01*
X22567857Y-55441904D01*
X23329761Y-56241904D02*
X23063095Y-55860952D01*
X22872619Y-56241904D02*
X22872619Y-55441904D01*
X23177380Y-55441904D01*
X23253571Y-55480000D01*
X23291666Y-55518095D01*
X23329761Y-55594285D01*
X23329761Y-55708571D01*
X23291666Y-55784761D01*
X23253571Y-55822857D01*
X23177380Y-55860952D01*
X22872619Y-55860952D01*
X14878095Y-41554523D02*
X15678095Y-41554523D01*
X15678095Y-41859285D01*
X15640000Y-41935476D01*
X15601904Y-41973571D01*
X15525714Y-42011666D01*
X15411428Y-42011666D01*
X15335238Y-41973571D01*
X15297142Y-41935476D01*
X15259047Y-41859285D01*
X15259047Y-41554523D01*
X15297142Y-42621190D02*
X15259047Y-42735476D01*
X15220952Y-42773571D01*
X15144761Y-42811666D01*
X15030476Y-42811666D01*
X14954285Y-42773571D01*
X14916190Y-42735476D01*
X14878095Y-42659285D01*
X14878095Y-42354523D01*
X15678095Y-42354523D01*
X15678095Y-42621190D01*
X15640000Y-42697380D01*
X15601904Y-42735476D01*
X15525714Y-42773571D01*
X15449523Y-42773571D01*
X15373333Y-42735476D01*
X15335238Y-42697380D01*
X15297142Y-42621190D01*
X15297142Y-42354523D01*
X15678095Y-43497380D02*
X15678095Y-43345000D01*
X15640000Y-43268809D01*
X15601904Y-43230714D01*
X15487619Y-43154523D01*
X15335238Y-43116428D01*
X15030476Y-43116428D01*
X14954285Y-43154523D01*
X14916190Y-43192619D01*
X14878095Y-43268809D01*
X14878095Y-43421190D01*
X14916190Y-43497380D01*
X14954285Y-43535476D01*
X15030476Y-43573571D01*
X15220952Y-43573571D01*
X15297142Y-43535476D01*
X15335238Y-43497380D01*
X15373333Y-43421190D01*
X15373333Y-43268809D01*
X15335238Y-43192619D01*
X15297142Y-43154523D01*
X15220952Y-43116428D01*
X24737871Y-37538159D02*
X24737871Y-37081016D01*
X25537871Y-37309587D02*
X24737871Y-37309587D01*
X25537871Y-36814349D02*
X24737871Y-36814349D01*
X25118824Y-36814349D02*
X25118824Y-36357206D01*
X25537871Y-36357206D02*
X24737871Y-36357206D01*
X24737871Y-35823873D02*
X24737871Y-35747682D01*
X24775967Y-35671492D01*
X24814062Y-35633397D01*
X24890252Y-35595302D01*
X25042633Y-35557206D01*
X25233109Y-35557206D01*
X25385490Y-35595302D01*
X25461681Y-35633397D01*
X25499776Y-35671492D01*
X25537871Y-35747682D01*
X25537871Y-35823873D01*
X25499776Y-35900063D01*
X25461681Y-35938159D01*
X25385490Y-35976254D01*
X25233109Y-36014349D01*
X25042633Y-36014349D01*
X24890252Y-35976254D01*
X24814062Y-35938159D01*
X24775967Y-35900063D01*
X24737871Y-35823873D01*
X25537871Y-34147682D02*
X25156919Y-34414349D01*
X25537871Y-34604825D02*
X24737871Y-34604825D01*
X24737871Y-34300063D01*
X24775967Y-34223873D01*
X24814062Y-34185778D01*
X24890252Y-34147682D01*
X25004538Y-34147682D01*
X25080728Y-34185778D01*
X25118824Y-34223873D01*
X25156919Y-34300063D01*
X25156919Y-34604825D01*
X25004538Y-33195302D02*
X25233109Y-32585778D01*
X25461681Y-33195302D01*
X23479285Y-53157380D02*
X23479285Y-52157380D01*
X23812619Y-52871666D01*
X24145952Y-52157380D01*
X24145952Y-53157380D01*
X24574523Y-53109761D02*
X24717380Y-53157380D01*
X24955476Y-53157380D01*
X25050714Y-53109761D01*
X25098333Y-53062142D01*
X25145952Y-52966904D01*
X25145952Y-52871666D01*
X25098333Y-52776428D01*
X25050714Y-52728809D01*
X24955476Y-52681190D01*
X24765000Y-52633571D01*
X24669761Y-52585952D01*
X24622142Y-52538333D01*
X24574523Y-52443095D01*
X24574523Y-52347857D01*
X24622142Y-52252619D01*
X24669761Y-52205000D01*
X24765000Y-52157380D01*
X25003095Y-52157380D01*
X25145952Y-52205000D01*
X26098333Y-53157380D02*
X25526904Y-53157380D01*
X25812619Y-53157380D02*
X25812619Y-52157380D01*
X25717380Y-52300238D01*
X25622142Y-52395476D01*
X25526904Y-52443095D01*
X51168571Y-21307904D02*
X51168571Y-20507904D01*
X51473333Y-20507904D01*
X51549523Y-20546000D01*
X51587619Y-20584095D01*
X51625714Y-20660285D01*
X51625714Y-20774571D01*
X51587619Y-20850761D01*
X51549523Y-20888857D01*
X51473333Y-20926952D01*
X51168571Y-20926952D01*
X52425714Y-21307904D02*
X52159047Y-20926952D01*
X51968571Y-21307904D02*
X51968571Y-20507904D01*
X52273333Y-20507904D01*
X52349523Y-20546000D01*
X52387619Y-20584095D01*
X52425714Y-20660285D01*
X52425714Y-20774571D01*
X52387619Y-20850761D01*
X52349523Y-20888857D01*
X52273333Y-20926952D01*
X51968571Y-20926952D01*
X52920952Y-20507904D02*
X53073333Y-20507904D01*
X53149523Y-20546000D01*
X53225714Y-20622190D01*
X53263809Y-20774571D01*
X53263809Y-21041238D01*
X53225714Y-21193619D01*
X53149523Y-21269809D01*
X53073333Y-21307904D01*
X52920952Y-21307904D01*
X52844761Y-21269809D01*
X52768571Y-21193619D01*
X52730476Y-21041238D01*
X52730476Y-20774571D01*
X52768571Y-20622190D01*
X52844761Y-20546000D01*
X52920952Y-20507904D01*
X53873333Y-20888857D02*
X53987619Y-20926952D01*
X54025714Y-20965047D01*
X54063809Y-21041238D01*
X54063809Y-21155523D01*
X54025714Y-21231714D01*
X53987619Y-21269809D01*
X53911428Y-21307904D01*
X53606666Y-21307904D01*
X53606666Y-20507904D01*
X53873333Y-20507904D01*
X53949523Y-20546000D01*
X53987619Y-20584095D01*
X54025714Y-20660285D01*
X54025714Y-20736476D01*
X53987619Y-20812666D01*
X53949523Y-20850761D01*
X53873333Y-20888857D01*
X53606666Y-20888857D01*
X54406666Y-20888857D02*
X54673333Y-20888857D01*
X54787619Y-21307904D02*
X54406666Y-21307904D01*
X54406666Y-20507904D01*
X54787619Y-20507904D01*
X55054285Y-20507904D02*
X55587619Y-20507904D01*
X55054285Y-21307904D01*
X55587619Y-21307904D01*
X52482857Y-21757809D02*
X51797142Y-22786380D01*
X52749523Y-22595904D02*
X52749523Y-21795904D01*
X53054285Y-21795904D01*
X53130476Y-21834000D01*
X53168571Y-21872095D01*
X53206666Y-21948285D01*
X53206666Y-22062571D01*
X53168571Y-22138761D01*
X53130476Y-22176857D01*
X53054285Y-22214952D01*
X52749523Y-22214952D01*
X53511428Y-22367333D02*
X53892380Y-22367333D01*
X53435238Y-22595904D02*
X53701904Y-21795904D01*
X53968571Y-22595904D01*
X54654285Y-22595904D02*
X54197142Y-22595904D01*
X54425714Y-22595904D02*
X54425714Y-21795904D01*
X54349523Y-21910190D01*
X54273333Y-21986380D01*
X54197142Y-22024476D01*
X55378095Y-21795904D02*
X54997142Y-21795904D01*
X54959047Y-22176857D01*
X54997142Y-22138761D01*
X55073333Y-22100666D01*
X55263809Y-22100666D01*
X55340000Y-22138761D01*
X55378095Y-22176857D01*
X55416190Y-22253047D01*
X55416190Y-22443523D01*
X55378095Y-22519714D01*
X55340000Y-22557809D01*
X55263809Y-22595904D01*
X55073333Y-22595904D01*
X54997142Y-22557809D01*
X54959047Y-22519714D01*
X14878095Y-48539523D02*
X15678095Y-48539523D01*
X15678095Y-48844285D01*
X15640000Y-48920476D01*
X15601904Y-48958571D01*
X15525714Y-48996666D01*
X15411428Y-48996666D01*
X15335238Y-48958571D01*
X15297142Y-48920476D01*
X15259047Y-48844285D01*
X15259047Y-48539523D01*
X15297142Y-49606190D02*
X15259047Y-49720476D01*
X15220952Y-49758571D01*
X15144761Y-49796666D01*
X15030476Y-49796666D01*
X14954285Y-49758571D01*
X14916190Y-49720476D01*
X14878095Y-49644285D01*
X14878095Y-49339523D01*
X15678095Y-49339523D01*
X15678095Y-49606190D01*
X15640000Y-49682380D01*
X15601904Y-49720476D01*
X15525714Y-49758571D01*
X15449523Y-49758571D01*
X15373333Y-49720476D01*
X15335238Y-49682380D01*
X15297142Y-49606190D01*
X15297142Y-49339523D01*
X15678095Y-50063333D02*
X15678095Y-50596666D01*
X14878095Y-50253809D01*
D11*
%TO.C,C2*%
X44627836Y-53240000D02*
X44412164Y-53240000D01*
X44627836Y-53960000D02*
X44412164Y-53960000D01*
%TO.C,C3*%
X25455802Y-18422435D02*
X25455802Y-18638107D01*
X26175802Y-18422435D02*
X26175802Y-18638107D01*
%TO.C,C4*%
X36860000Y-55372164D02*
X36860000Y-55587836D01*
X36140000Y-55372164D02*
X36140000Y-55587836D01*
%TO.C,C5*%
X45138748Y-54665000D02*
X45661252Y-54665000D01*
X45138748Y-56135000D02*
X45661252Y-56135000D01*
%TO.C,C6*%
X40610000Y-55392164D02*
X40610000Y-55607836D01*
X39890000Y-55392164D02*
X39890000Y-55607836D01*
%TO.C,C7*%
X38360000Y-45392164D02*
X38360000Y-45607836D01*
X37640000Y-45392164D02*
X37640000Y-45607836D01*
%TO.C,C8*%
X37110000Y-45392164D02*
X37110000Y-45607836D01*
X36390000Y-45392164D02*
X36390000Y-45607836D01*
%TO.C,C9*%
X34340000Y-48292164D02*
X34340000Y-48507836D01*
X35060000Y-48292164D02*
X35060000Y-48507836D01*
%TO.C,C13*%
X36935000Y-34861252D02*
X36935000Y-34338748D01*
X35465000Y-34861252D02*
X35465000Y-34338748D01*
%TO.C,C14*%
X37665000Y-34861252D02*
X37665000Y-34338748D01*
X39135000Y-34861252D02*
X39135000Y-34338748D01*
%TO.C,C15*%
X39865000Y-34861252D02*
X39865000Y-34338748D01*
X41335000Y-34861252D02*
X41335000Y-34338748D01*
%TO.C,C16*%
X26660000Y-23092164D02*
X26660000Y-23307836D01*
X25940000Y-23092164D02*
X25940000Y-23307836D01*
%TO.C,C17*%
X31640000Y-24107836D02*
X31640000Y-23892164D01*
X32360000Y-24107836D02*
X32360000Y-23892164D01*
%TO.C,C18*%
X25940000Y-25307836D02*
X25940000Y-25092164D01*
X26660000Y-25307836D02*
X26660000Y-25092164D01*
%TO.C,C19*%
X29857836Y-30160000D02*
X29642164Y-30160000D01*
X29857836Y-29440000D02*
X29642164Y-29440000D01*
D12*
%TO.C,D2*%
X53433980Y-17274540D02*
X53510180Y-17274540D01*
X53510180Y-16809720D02*
X53433980Y-16809720D01*
X54320000Y-17275000D02*
X53920000Y-17275000D01*
X49820000Y-17275000D02*
X49820000Y-16875000D01*
X49820000Y-14475000D02*
X50220000Y-14475000D01*
X53510180Y-14932660D02*
X53433980Y-14932660D01*
X54320000Y-17275000D02*
X54320000Y-16875000D01*
X53510180Y-17274540D02*
X53510180Y-16809720D01*
X54320000Y-14475000D02*
X54320000Y-14875000D01*
X53510180Y-14472920D02*
X53510180Y-14932660D01*
X53433980Y-14932660D02*
X53433980Y-14472920D01*
X49820000Y-17275000D02*
X50220000Y-17275000D01*
X49820000Y-14475000D02*
X49820000Y-14875000D01*
X53433980Y-16809720D02*
X53433980Y-17274540D01*
X53433980Y-14472920D02*
X53510180Y-14472920D01*
X54320000Y-14475000D02*
X53920000Y-14475000D01*
%TO.C,D3*%
X31557660Y-46059820D02*
X31557660Y-46136020D01*
X31100000Y-49750000D02*
X31100000Y-49350000D01*
X31557660Y-46136020D02*
X31097920Y-46136020D01*
X33900000Y-45250000D02*
X33900000Y-45650000D01*
X33899540Y-46136020D02*
X33899540Y-46059820D01*
X33900000Y-49750000D02*
X33900000Y-49350000D01*
X31100000Y-45250000D02*
X31100000Y-45650000D01*
X33899540Y-46059820D02*
X33434720Y-46059820D01*
X31100000Y-49750000D02*
X31500000Y-49750000D01*
X33434720Y-46059820D02*
X33434720Y-46136020D01*
X33900000Y-45250000D02*
X33500000Y-45250000D01*
X31100000Y-45250000D02*
X31500000Y-45250000D01*
X31097920Y-46136020D02*
X31097920Y-46059820D01*
X33900000Y-49750000D02*
X33500000Y-49750000D01*
X33434720Y-46136020D02*
X33899540Y-46136020D01*
X31097920Y-46059820D02*
X31557660Y-46059820D01*
D13*
%TO.C,L1*%
X32280500Y-38084500D02*
X32280500Y-36784500D01*
X39580500Y-42284500D02*
X39580500Y-43584500D01*
X32280500Y-43584500D02*
X32280500Y-42284500D01*
X39580500Y-36784500D02*
X39580500Y-38084500D01*
X32280500Y-36784500D02*
X39580500Y-36784500D01*
X39580500Y-43584500D02*
X32280500Y-43584500D01*
D11*
%TO.C,L2*%
X29349622Y-31040000D02*
X28550378Y-31040000D01*
X29349622Y-32160000D02*
X28550378Y-32160000D01*
%TO.C,R3*%
X34982000Y-15053323D02*
X35289282Y-15053323D01*
X34982000Y-14293323D02*
X35289282Y-14293323D01*
%TO.C,R4*%
X37370000Y-55653641D02*
X37370000Y-55346359D01*
X38130000Y-55653641D02*
X38130000Y-55346359D01*
%TO.C,R5*%
X39380000Y-55346359D02*
X39380000Y-55653641D01*
X38620000Y-55346359D02*
X38620000Y-55653641D01*
%TO.C,R6*%
X35880000Y-45643641D02*
X35880000Y-45336359D01*
X35120000Y-45643641D02*
X35120000Y-45336359D01*
%TO.C,R10*%
X39646359Y-45620000D02*
X39953641Y-45620000D01*
X39646359Y-46380000D02*
X39953641Y-46380000D01*
%TO.C,R11*%
X39953641Y-44420000D02*
X39646359Y-44420000D01*
X39953641Y-45180000D02*
X39646359Y-45180000D01*
%TO.C,R15*%
X54613423Y-39769435D02*
X54613423Y-39462153D01*
X55373423Y-39769435D02*
X55373423Y-39462153D01*
%TO.C,R16*%
X49602675Y-41107542D02*
X49909957Y-41107542D01*
X49602675Y-41867542D02*
X49909957Y-41867542D01*
%TO.C,R17*%
X51870000Y-28356359D02*
X51870000Y-28663641D01*
X51110000Y-28356359D02*
X51110000Y-28663641D01*
%TO.C,R18*%
X51815000Y-36676359D02*
X51815000Y-36983641D01*
X51055000Y-36676359D02*
X51055000Y-36983641D01*
%TO.C,R19*%
X49899898Y-40791282D02*
X49592616Y-40791282D01*
X49899898Y-40031282D02*
X49592616Y-40031282D01*
%TO.C,R20*%
X32820000Y-23846359D02*
X32820000Y-24153641D01*
X33580000Y-23846359D02*
X33580000Y-24153641D01*
%TO.C,R21*%
X24368532Y-18384864D02*
X24368532Y-18692146D01*
X25128532Y-18384864D02*
X25128532Y-18692146D01*
%TO.C,R22*%
X39246359Y-32580000D02*
X39553641Y-32580000D01*
X39246359Y-31820000D02*
X39553641Y-31820000D01*
%TO.C,U3*%
X30178547Y-14205518D02*
X32128547Y-14205518D01*
X30178547Y-19325518D02*
X32128547Y-19325518D01*
X30178547Y-19325518D02*
X28228547Y-19325518D01*
X30178547Y-14205518D02*
X26728547Y-14205518D01*
%TO.C,U5*%
X51740000Y-33080000D02*
X51740000Y-32150000D01*
X51740000Y-29920000D02*
X53200000Y-29920000D01*
X51740000Y-33080000D02*
X53900000Y-33080000D01*
X51740000Y-29920000D02*
X51740000Y-30850000D01*
%TO.C,U6*%
X51945000Y-41585000D02*
X54105000Y-41585000D01*
X51945000Y-38425000D02*
X51945000Y-39355000D01*
X51945000Y-41585000D02*
X51945000Y-40655000D01*
X51945000Y-38425000D02*
X53405000Y-38425000D01*
%TO.C,U8*%
X41135000Y-23390000D02*
X41610000Y-23390000D01*
X41610000Y-30610000D02*
X41610000Y-30135000D01*
X34865000Y-23390000D02*
X34390000Y-23390000D01*
X41135000Y-30610000D02*
X41610000Y-30610000D01*
X34865000Y-30610000D02*
X34390000Y-30610000D01*
X34390000Y-30610000D02*
X34390000Y-30135000D01*
X41610000Y-23390000D02*
X41610000Y-23865000D01*
%TO.C,Y1*%
X27000000Y-20900000D02*
X27000000Y-26650000D01*
X30600000Y-20900000D02*
X27000000Y-20900000D01*
X30600000Y-26650000D02*
X30600000Y-20900000D01*
%TO.C,R14*%
X54421054Y-31247833D02*
X54421054Y-30940551D01*
X55181054Y-31247833D02*
X55181054Y-30940551D01*
%TO.C,R25*%
X40680000Y-43353641D02*
X40680000Y-43046359D01*
X39920000Y-43353641D02*
X39920000Y-43046359D01*
%TO.C,R26*%
X37406513Y-15928130D02*
X37406513Y-15474002D01*
X38876513Y-15928130D02*
X38876513Y-15474002D01*
%TO.C,C22*%
X32692164Y-21230000D02*
X32907836Y-21230000D01*
X32692164Y-21950000D02*
X32907836Y-21950000D01*
%TO.C,C23*%
X27707836Y-30160000D02*
X27492164Y-30160000D01*
X27707836Y-29440000D02*
X27492164Y-29440000D01*
%TO.C,L3*%
X29349622Y-27540000D02*
X28550378Y-27540000D01*
X29349622Y-28660000D02*
X28550378Y-28660000D01*
%TO.C,R29*%
X26620000Y-52646359D02*
X26620000Y-52953641D01*
X27380000Y-52646359D02*
X27380000Y-52953641D01*
%TO.C,R30*%
X27380000Y-50046359D02*
X27380000Y-50353641D01*
X26620000Y-50046359D02*
X26620000Y-50353641D01*
%TO.C,R31*%
X26620000Y-47446359D02*
X26620000Y-47753641D01*
X27380000Y-47446359D02*
X27380000Y-47753641D01*
%TO.C,U4*%
X35440000Y-50500000D02*
X35440000Y-48550000D01*
X40560000Y-50500000D02*
X40560000Y-52450000D01*
X35440000Y-50500000D02*
X35440000Y-53950000D01*
X40560000Y-50500000D02*
X40560000Y-48550000D01*
%TO.C,JP1*%
X19180000Y-16240000D02*
X16380000Y-16240000D01*
X16380000Y-16240000D02*
X16380000Y-14240000D01*
X19180000Y-14240000D02*
X19180000Y-16240000D01*
X16380000Y-14240000D02*
X19180000Y-14240000D01*
%TO.C,R9*%
X25403031Y-32297802D02*
X24948903Y-32297802D01*
X25403031Y-30827802D02*
X24948903Y-30827802D01*
%TO.C,R24*%
X19531359Y-55500000D02*
X19838641Y-55500000D01*
X19531359Y-56260000D02*
X19838641Y-56260000D01*
%TO.C,C10*%
X22097164Y-41000000D02*
X22312836Y-41000000D01*
X22097164Y-40280000D02*
X22312836Y-40280000D01*
%TO.C,C20*%
X49805000Y-21482164D02*
X49805000Y-21697836D01*
X50525000Y-21482164D02*
X50525000Y-21697836D01*
%TO.C,R23*%
X53821359Y-54230000D02*
X54128641Y-54230000D01*
X53821359Y-54990000D02*
X54128641Y-54990000D01*
%TO.C,R7*%
X19511359Y-40260000D02*
X19818641Y-40260000D01*
X19511359Y-41020000D02*
X19818641Y-41020000D01*
%TO.C,C11*%
X22110859Y-47054402D02*
X22326531Y-47054402D01*
X22110859Y-47774402D02*
X22326531Y-47774402D01*
%TO.C,D5*%
X52490000Y-55145000D02*
X52490000Y-56615000D01*
X52490000Y-56615000D02*
X54775000Y-56615000D01*
X54775000Y-55145000D02*
X52490000Y-55145000D01*
%TO.C,D6*%
X18630000Y-56615000D02*
X18630000Y-55145000D01*
X16345000Y-56615000D02*
X18630000Y-56615000D01*
X18630000Y-55145000D02*
X16345000Y-55145000D01*
%TO.C,C1*%
X47080451Y-31986479D02*
X46557947Y-31986479D01*
X47080451Y-33456479D02*
X46557947Y-33456479D01*
%TO.C,C12*%
X26375000Y-28037164D02*
X26375000Y-28252836D01*
X25655000Y-28037164D02*
X25655000Y-28252836D01*
%TO.C,R2*%
X19511359Y-34240000D02*
X19818641Y-34240000D01*
X19511359Y-33480000D02*
X19818641Y-33480000D01*
%TO.C,C24*%
X22097164Y-34220000D02*
X22312836Y-34220000D01*
X22097164Y-33500000D02*
X22312836Y-33500000D01*
%TO.C,J1*%
X13850000Y-23815000D02*
X14250000Y-23815000D01*
X18200000Y-31335000D02*
X18200000Y-30915000D01*
X18200000Y-23815000D02*
X18200000Y-24235000D01*
X16220000Y-31335000D02*
X18200000Y-31335000D01*
X14250000Y-31335000D02*
X13850000Y-31335000D01*
X16220000Y-23815000D02*
X18200000Y-23815000D01*
X18880000Y-26265000D02*
X18880000Y-25815000D01*
X18430000Y-25815000D02*
X18880000Y-25815000D01*
%TO.C,R27*%
X49275000Y-21743641D02*
X49275000Y-21436359D01*
X48515000Y-21743641D02*
X48515000Y-21436359D01*
%TO.C,D4*%
X47990000Y-16800000D02*
X47990000Y-20700000D01*
X45990000Y-16800000D02*
X45990000Y-20700000D01*
X47990000Y-16800000D02*
X45990000Y-16800000D01*
%TO.C,R8*%
X19525054Y-47034402D02*
X19832336Y-47034402D01*
X19525054Y-47794402D02*
X19832336Y-47794402D01*
%TO.C,U7*%
X47594123Y-44246909D02*
X49094123Y-44246909D01*
X46094123Y-47466909D02*
X49094123Y-47466909D01*
%TO.C,D1*%
X16224904Y-18405204D02*
X14224904Y-18405204D01*
X14224904Y-18405204D02*
X14224904Y-22305204D01*
X16224904Y-18405204D02*
X16224904Y-22305204D01*
%TO.C,R28*%
X46616693Y-22322231D02*
X46923975Y-22322231D01*
X46616693Y-21562231D02*
X46923975Y-21562231D01*
%TO.C,U1*%
X44912760Y-33668404D02*
X44912760Y-34318404D01*
X41792760Y-33668404D02*
X41792760Y-33018404D01*
X44912760Y-33668404D02*
X44912760Y-31993404D01*
X41792760Y-33668404D02*
X41792760Y-34318404D01*
%TD*%
M02*
